<?xml version="1.0" encoding="UTF-8" standalone="no"?>
<!-- Created with Inkscape (http://www.inkscape.org/) -->

<svg
   version="1.1"
   id="svg199"
   width="399.99997"
   height="382.8689"
   viewBox="0 0 399.99997 382.86889"
   sodipodi:docname="logo.svg"
   inkscape:version="1.2.1 (9c6d41e410, 2022-07-14)"
   xmlns:inkscape="http://www.inkscape.org/namespaces/inkscape"
   xmlns:sodipodi="http://sodipodi.sourceforge.net/DTD/sodipodi-0.dtd"
   xmlns="http://www.w3.org/2000/svg"
   xmlns:svg="http://www.w3.org/2000/svg">
  <defs
     id="defs203" />
  <sodipodi:namedview
     id="namedview201"
     pagecolor="#ffffff"
     bordercolor="#000000"
     borderopacity="0.25"
     inkscape:showpageshadow="2"
     inkscape:pageopacity="0.0"
     inkscape:pagecheckerboard="0"
     inkscape:deskcolor="#d1d1d1"
     showgrid="false"
     inkscape:zoom="1.4100046"
     inkscape:rotation="-1"
     inkscape:cx="95.094324"
     inkscape:cy="200.62571"
     inkscape:window-width="1920"
     inkscape:window-height="991"
     inkscape:window-x="-9"
     inkscape:window-y="-9"
     inkscape:window-maximized="1"
     inkscape:current-layer="g205" />
  <g
     inkscape:groupmode="layer"
     inkscape:label="Image"
     id="g205"
     transform="translate(-17.053331,-10.204225)">
    <path
       style="fill:#97260a;fill-opacity:1;stroke:none;stroke-width:0.8"
       d="m 290.99611,391.38705 c -0.28393,-1.13125 -0.7898,-2.05683 -1.12417,-2.05683 -0.33436,0 -0.80804,-1.49188 -1.0526,-3.3153 -0.24458,-1.82341 -0.84473,-3.56254 -1.33369,-3.86473 -0.48895,-0.30219 -1.11191,-1.96031 -1.38437,-3.68471 -0.27245,-1.72439 -0.79253,-3.33208 -1.15574,-3.57264 -0.3632,-0.24055 -0.8392,-1.83416 -1.05777,-3.54134 -0.21858,-1.70718 -0.72051,-3.31037 -1.11542,-3.56262 -0.3949,-0.25227 -0.97184,-1.62866 -1.28207,-3.05866 -0.70478,-3.24859 -1.86668,-3.32719 -2.95682,-0.2 -0.46016,1.32 -1.16143,2.4 -1.55839,2.4 -0.39695,0 -0.72395,0.99 -0.72666,2.2 -0.002,1.21 -0.54271,3.23115 -1.2,4.49145 -0.65729,1.26029 -1.19507,3.15029 -1.19507,4.2 0,1.16316 -0.46867,1.90855 -1.2,1.90855 -0.88889,0 -1.2,0.93334 -1.2,3.6 0,2.66666 -0.31112,3.6 -1.2,3.6 -0.8,0 -1.2,0.8 -1.2,2.4 0,2.13334 -0.26667,2.4 -2.4,2.4 -2.13334,0 -2.4,-0.26666 -2.4,-2.4 0,-1.6 -0.4,-2.4 -1.2,-2.4 -0.88889,0 -1.2,-0.93334 -1.2,-3.6 0,-2.53177 -0.3284,-3.6 -1.1067,-3.6 -1.15926,0 -2.06385,-2.34578 -2.08238,-5.4 -0.006,-0.99 -0.37092,-1.8 -0.81092,-1.8 -0.44,0 -0.8,-1.62 -0.8,-3.6 0,-2.66666 -0.31112,-3.6 -1.2,-3.6 -0.80276,0 -1.2,-0.80279 -1.2,-2.42511 0,-1.33381 -0.49755,-2.61604 -1.10565,-2.84939 -0.60811,-0.23335 -1.33237,-1.84205 -1.60946,-3.57489 -0.32467,-2.0304 -0.9271,-3.15061 -1.69435,-3.15061 -0.65721,0 -1.19054,-0.71676 -1.19054,-1.6 0,-1.17334 -0.53334,-1.6 -2,-1.6 -1.26471,0 -2,-0.45147 -2,-1.22799 0,-1.03842 1.2558,-1.19279 8.13503,-1 5.11725,0.14341 8.24545,0.56116 8.43271,1.12613 0.16373,0.49398 -0.48341,1.10239 -1.43807,1.35205 -1.57369,0.41153 -1.70196,0.86137 -1.37387,4.81786 0.21613,2.6062 0.90209,4.90413 1.70304,5.70508 0.73764,0.73764 1.34116,2.57544 1.34116,4.08401 0,1.90476 0.36666,2.74286 1.2,2.74286 0.88888,0 1.2,0.93334 1.2,3.6 0,1.98 0.31993,3.6 0.71096,3.6 0.39104,0 0.94428,1.24362 1.22943,2.7636 0.59321,3.16213 2.40667,3.14996 3.20265,-0.0215 0.26809,-1.06816 0.84058,-1.94211 1.2722,-1.94211 0.43161,0 0.78476,-1.0913 0.78476,-2.42511 0,-1.41766 0.49851,-2.6164 1.2,-2.88559 0.73339,-0.28143 1.2,-1.49373 1.2,-3.11775 0,-1.4615 0.52618,-3.18345 1.16929,-3.82657 0.74395,-0.74394 1.24151,-3.12491 1.36779,-6.54518 0.15888,-4.30308 -0.0745,-5.57548 -1.1693,-6.37604 -0.75228,-0.55005 -1.36778,-1.42394 -1.36778,-1.94195 0,-1.35716 14.547,-0.85466 15.00195,0.51822 0.19421,0.58604 -0.35855,1 -1.33529,1 -1.50466,0 -1.66666,0.469 -1.66666,4.8251 0,3.551 0.31687,4.94671 1.2,5.28559 0.66,0.25328 1.21221,1.41197 1.22714,2.5749 0.015,1.16292 0.72271,3.55441 1.57286,5.31441 0.85014,1.76 1.55792,4.65053 1.57285,6.42339 0.0192,2.28439 0.49324,3.55934 1.62715,4.37661 0.88,0.63427 1.63944,1.70374 1.68765,2.37661 0.0482,0.67286 0.40035,-0.37051 0.78252,-2.31859 0.38218,-1.94809 1.09003,-3.78621 1.57301,-4.08471 0.48298,-0.29849 1.07824,-2.0346 1.32282,-3.85801 0.27564,-2.05516 0.86075,-3.3153 1.53933,-3.3153 0.73802,0 1.09467,-1.01067 1.09467,-3.10205 0,-1.78141 0.51087,-3.52603 1.2,-4.09795 0.79601,-0.66063 1.2,-2.45267 1.2,-5.32307 0,-3.10836 -0.33799,-4.45684 -1.2,-4.78763 -0.66,-0.25327 -1.2,-0.97774 -1.2,-1.60994 0,-1.52363 11.2943,-1.2168 11.80267,0.32064 0.18186,0.55 -0.18354,1 -0.81202,1 -1.87939,0 -3.79065,2.75446 -3.79065,5.46299 0,1.72178 -0.3856,2.53701 -1.2,2.53701 -0.7935,0 -1.2,0.79365 -1.2,2.34285 0,1.28858 -0.49611,2.83897 -1.10247,3.44532 -0.60635,0.60636 -1.35496,2.25208 -1.66356,3.65715 -0.3086,1.40507 -0.8925,2.55468 -1.29754,2.55468 -0.40503,0 -0.73643,1.62 -0.73643,3.6 0,2.5127 -0.33062,3.6 -1.09467,3.6 -0.6821,0 -1.26567,1.27494 -1.54839,3.3828 -0.24955,1.86054 -0.83695,3.51054 -1.30534,3.66666 -0.46838,0.15613 -0.8516,0.94816 -0.8516,1.76006 0,0.81191 -0.50118,1.97737 -1.11372,2.58991 -0.61255,0.61255 -1.24255,1.77843 -1.4,2.59086 -0.44663,2.30444 -2.17133,2.34627 -2.74351,0.0666 z m -273.942779,-0.0568 c 0,-0.8 0.8,-1.2 2.4,-1.2 2.118096,0 2.4,-0.27407 2.4,-2.33334 0,-1.28332 0.448026,-2.48267 0.995612,-2.6652 1.499395,-0.4998 1.574078,-30.71749 0.07962,-32.21195 -0.591381,-0.59138 -1.075232,-1.46094 -1.075232,-1.93237 0,-0.47143 -1.08,-0.85714 -2.4,-0.85714 -2.670885,0 -3.028188,-0.85753 -1.142856,-2.74286 0.943986,-0.94399 2.936796,-1.25714 8,-1.25714 3.708571,0 6.742857,0.33056 6.742857,0.73457 0,0.40401 0.218516,1.30401 0.485591,2 0.318649,0.83039 0.04362,1.26543 -0.8,1.26543 -0.707075,0 -1.285591,0.54 -1.285591,1.2 0,0.66 -0.54,1.2 -1.2,1.2 -0.982456,0 -1.2,1.37777 -1.2,7.6 v 7.6 h 12 12 v -8.8 -8.8 h -2.485591 c -1.93786,0 -2.378585,-0.27886 -2,-1.26543 0.267075,-0.69599 0.485591,-1.59599 0.485591,-2 0,-0.40401 3.69,-0.70927 8.2,-0.67834 5.101345,0.035 7.595384,0.30484 6.6,0.71413 -1.468779,0.60394 -1.485181,0.70477 -0.2,1.22936 2.075632,0.84725 1.698415,1.85966 -0.8,2.14714 -2.033428,0.23397 -2.218776,0.55599 -2.447996,4.25314 -0.136398,2.2 -0.586398,4.342 -1,4.76 -0.998981,1.0096 -0.964297,3.64 0.048,3.64 1.115748,0 0.999667,2.90199 -0.192437,4.81086 -0.789917,1.26485 -0.789917,1.91343 0,3.17828 0.590871,0.94614 0.996857,4.42593 1.003361,8.6 0.0146,9.37125 0.398061,10.61086 3.282377,10.61086 1.517063,0 2.306695,0.41078 2.306695,1.2 0,1.0025 -1.641654,1.2 -9.974892,1.2 -8.537897,0 -9.908554,-0.17287 -9.514409,-1.2 0.253266,-0.66 1.24196,-1.2 2.197099,-1.2 3.524209,0 4.492202,-2.50158 4.492202,-11.60914 v -8.39086 l -10.6,0.0254 c -7.544293,0.0181 -11.003584,0.33181 -12,1.0882 -1.921621,1.45871 -2.094632,15.47002 -0.2,16.19706 0.66,0.25327 1.2,0.96196 1.2,1.57489 0,0.7049 0.881924,1.11441 2.4,1.11441 1.6,0 2.4,0.4 2.4,1.2 0,1 -1.6,1.2 -9.6,1.2 -8.000001,0 -9.600001,-0.2 -9.600001,-1.2 z m 42.129826,-15 c -0.22193,-0.55 -0.403509,-0.1 -0.403509,1 0,1.1 0.181579,1.55 0.403509,1 0.22193,-0.55 0.22193,-1.45 0,-2 z m 23.470176,15.02462 c 0,-0.8488 0.79952,-1.22462 2.605216,-1.22462 2.33792,0 2.707288,-0.32703 3.6,-3.1874 1.236456,-3.96175 1.40828,-33.6126 0.194784,-33.6126 -0.44,0 -0.8,-0.57371 -0.8,-1.2749 0,-0.70119 -0.738888,-1.46812 -1.641976,-1.70428 -1.12048,-0.29301 -1.56512,-0.96795 -1.4,-2.1251 0.226048,-1.5841 0.715944,-1.69572 7.441976,-1.69572 6.726032,0 7.215928,0.11162 7.441977,1.69572 0.16512,1.15715 -0.279521,1.83209 -1.400001,2.1251 -0.903088,0.23616 -1.641976,1.00309 -1.641976,1.70428 0,0.70119 -0.36,1.2749 -0.8,1.2749 -0.506664,0 -0.8,5.86666 -0.8,16 0,10.13334 0.293336,16 0.8,16 0.44,0 0.8,1.08 0.8,2.4 0,2.22015 0.214816,2.4 2.866664,2.4 1.937083,0 2.759003,0.32427 2.534643,1 -0.23572,0.70994 -3.155659,1.06515 -10.066667,1.22462 -8.304496,0.19163 -9.73464,0.0447 -9.73464,-1 z m 241.800007,0.58961 c -1.87,-0.16842 -3.4,-0.57625 -3.4,-0.90627 0,-0.33002 1.41466,-1.22419 3.14369,-1.98704 2.43292,-1.0734 3.26958,-1.96736 3.70051,-3.95395 0.30625,-1.41183 0.89888,-2.78509 1.31697,-3.05167 0.41808,-0.26659 0.96025,-1.97659 1.20483,-3.8 0.24457,-1.82342 0.72866,-3.3153 1.07577,-3.3153 0.34711,0 0.8617,-1.04993 1.14355,-2.33317 0.28185,-1.28324 1.03045,-2.53194 1.66357,-2.77489 0.73808,-0.28323 1.15111,-1.59893 1.15111,-3.66684 0,-1.77381 0.36,-3.2251 0.8,-3.2251 0.44,0 0.8,-0.72352 0.8,-1.60783 0,-0.88431 0.72,-2.22432 1.6,-2.9778 0.97555,-0.83529 1.6,-2.35995 1.6,-3.90657 0,-1.51678 0.48245,-2.72175 1.2,-2.99711 0.66,-0.25326 1.2,-1.19177 1.2,-2.08559 0,-0.89381 0.33056,-1.6251 0.73457,-1.6251 2.14402,0 3.32284,1.2773 3.77218,4.08732 0.29788,1.86281 0.93853,3.11268 1.5955,3.11268 0.72124,0 1.09775,0.96035 1.09775,2.8 0,1.95555 0.3619,2.8 1.2,2.8 0.86822,0 1.2,0.89168 1.2,3.2251 0,2.12878 0.40793,3.38165 1.2,3.6856 0.68402,0.26248 1.2,1.45563 1.2,2.77489 0,1.52392 0.40986,2.31441 1.2,2.31441 0.88889,0 1.2,0.93334 1.2,3.6 0,2.66666 0.31111,3.6 1.2,3.6 0.66,0 1.25483,0.63 1.32185,1.4 0.067,0.77 0.17384,1.94 0.23736,2.6 0.0635,0.66 0.52205,1.11889 1.01892,1.01974 0.49688,-0.0991 1.13392,0.86925 1.41566,2.15198 0.38433,1.74986 1.03296,2.39417 2.59753,2.58026 3.07027,0.36517 3.09903,1.99245 0.0435,2.46044 -3.69351,0.56568 -15.70116,0.1879 -16.4052,-0.51614 -0.86044,-0.86043 1.44388,-2.06996 3.97038,-2.08403 2.14979,-0.012 3.0488,-1.19599 1.34047,-1.76543 -0.47273,-0.15757 -1.0586,-2.48197 -1.30192,-5.16532 l -0.44239,-4.8788 -4.89808,-0.38847 c -2.69394,-0.21365 -6.96808,-0.21468 -9.49808,-0.002 l -4.6,0.38618 v 2.75353 c 0,1.51444 -0.34152,3.39166 -0.75893,4.1716 -1.0934,2.04305 -0.13336,4.87674 1.65224,4.87674 2.80084,0 1.59089,2.17674 -1.49331,2.68652 -1.65,0.27273 -3.36,0.43694 -3.8,0.36491 -0.44,-0.072 -2.33,-0.26877 -4.2,-0.4372 z m 23,-23.01423 c 0,-2.66666 -0.31111,-3.6 -1.2,-3.6 -0.88178,0 -1.2,-0.91794 -1.2,-3.46145 0,-3.39099 -0.0489,-3.45427 -2.4,-3.1092 -2.12983,0.31259 -2.4,0.66005 -2.4,3.08655 0,1.69251 -0.45722,2.90976 -1.2,3.19479 -0.81468,0.31263 -1.2,1.58897 -1.2,3.9749 v 3.51441 h 4.8 4.8 z m 43,23.04576 c -2.62661,-0.23046 -3.8,-0.69044 -3.8,-1.48959 0,-0.788 0.89162,-1.15617 2.8,-1.15617 2.23829,0 2.8,-0.3115 2.8,-1.55278 0,-0.85404 0.28503,-1.72896 0.63341,-1.94426 0.34837,-0.2153 0.71915,-2.7139 0.82396,-5.55243 0.14834,-4.01803 -0.0805,-5.26498 -1.03341,-5.63063 -0.67318,-0.25833 -1.22396,-1.34247 -1.22396,-2.4092 0,-1.06673 -0.54,-2.14673 -1.2,-2.4 -0.66,-0.25327 -1.2,-1.37178 -1.2,-2.4856 0,-1.26676 -0.44937,-2.0251 -1.2,-2.0251 -0.66666,0 -1.2,-0.71111 -1.2,-1.6 0,-0.88889 -0.53334,-1.6 -1.2,-1.6 -0.73236,0 -1.2,-0.74605 -1.2,-1.91441 0,-1.05293 -0.54,-2.12162 -1.2,-2.3749 -0.66,-0.25326 -1.2,-1.38308 -1.2,-2.51069 0,-1.12762 -0.54,-2.25743 -1.2,-2.5107 -0.66,-0.25327 -1.2,-0.96197 -1.2,-1.57489 0,-0.7049 -0.88193,-1.11441 -2.4,-1.11441 -1.6,0 -2.4,-0.4 -2.4,-1.2 0,-0.99048 1.46666,-1.2 8.4,-1.2 6.93334,0 8.4,0.20952 8.4,1.2 0,0.66 -0.54,1.2 -1.2,1.2 -1.68245,0 -1.6525,6.29273 0.0358,7.52726 0.6797,0.49701 1.29631,1.7067 1.37025,2.68819 0.0739,0.98151 0.59781,1.78455 1.16417,1.78455 0.56637,0 1.02976,0.72 1.02976,1.6 0,0.88889 0.53334,1.6 1.2,1.6 0.66,0 1.20552,0.45 1.21225,1 0.006,0.55 0.3185,1.48318 0.69279,2.07374 1.12722,1.77855 4.09494,-0.58852 4.09494,-3.26618 0,-1.42895 0.42325,-2.20756 1.2,-2.20756 0.66666,0 1.2,-0.71111 1.2,-1.6 0,-0.90055 0.53334,-1.6 1.22,-1.6 0.71555,0 1.41847,-0.99235 1.7,-2.4 0.264,-1.32 0.975,-2.4 1.58,-2.4 0.679,0 1.1,-0.88283 1.1,-2.3067 0,-1.67072 -0.46333,-2.42785 -1.6805,-2.74615 -3.27472,-0.85636 -0.55282,-2.14715 4.52772,-2.14715 4.04692,0 5.15278,0.25753 5.15278,1.2 0,0.66666 -0.71111,1.2 -1.6,1.2 -0.88889,0 -1.6,0.53333 -1.6,1.2 0,0.66 -0.5114,1.2 -1.13643,1.2 -0.62504,0 -1.37365,1.08 -1.66357,2.4 -0.28992,1.32 -0.85853,2.4 -1.26357,2.4 -0.40503,0 -0.73643,0.54 -0.73643,1.2 0,0.66 -0.52369,1.2 -1.16375,1.2 -0.69661,0 -1.3746,1.12393 -1.68903,2.8 -0.30085,1.60365 -0.99996,2.8 -1.63625,2.8 -0.6517,0 -1.11097,0.82679 -1.11097,2 0,1.24445 -0.45334,2 -1.2,2 -0.66,0 -1.2,0.69 -1.2,1.53334 0,0.84332 -0.44879,1.68292 -0.99732,1.86576 -0.66312,0.22104 -1.09274,2.65608 -1.28209,7.26668 -0.2442,5.94621 -0.1021,6.93422 0.99731,6.93422 0.70516,0 1.2821,0.54 1.2821,1.2 0,1.02832 1.99409,1.64304 4.2,1.29474 0.33,-0.0521 0.6,0.44526 0.6,1.10526 0,0.85177 -0.87058,1.20255 -3,1.20881 -1.65,0.005 -4.26,0.13516 -5.8,0.28959 -1.54,0.15443 -4.51,0.13075 -6.6,-0.0526 z m -258.20001,-1.04576 c 0,-0.44 -1.26,-0.8 -2.8,-0.8 -2.26666,0 -2.8,-0.30476 -2.8,-1.6 0,-0.88889 -0.53333,-1.6 -1.2,-1.6 -0.66,0 -1.2,-0.38571 -1.2,-0.85714 0,-0.47143 -0.54,-1.39715 -1.2,-2.05715 -0.66,-0.66 -1.2,-1.89428 -1.2,-2.74285 0,-0.84857 -0.54,-1.54286 -1.2,-1.54286 -0.98995,0 -1.2,-1.46032 -1.2,-8.34286 0,-5.87944 0.31449,-8.65734 1.06507,-9.40792 0.58578,-0.58579 1.31264,-2.0515 1.61524,-3.25714 0.3026,-1.20565 0.90332,-2.19208 1.33493,-2.19208 0.43162,0 0.78476,-0.72 0.78476,-1.6 0,-0.88889 0.53334,-1.6 1.2,-1.6 0.66,0 1.2,-0.54 1.2,-1.2 0,-0.66 0.52211,-1.2 1.16025,-1.2 0.63814,0 1.44814,-0.51154 1.8,-1.13675 1.47147,-2.61458 16.23975,-5.2184 16.23975,-2.86325 0,0.44 1.6313,0.8 3.62511,0.8 2.48433,0 3.77002,0.37762 4.08559,1.2 0.66063,1.72157 2.42965,1.47933 2.9211,-0.4 0.23013,-0.88 0.81212,-1.6 1.29331,-1.6 0.56029,0 0.87489,2.30141 0.87489,6.4 v 6.4 h -2.4 c -2.16046,0 -2.4,-0.25238 -2.4,-2.52864 0,-1.83194 -0.70096,-3.15447 -2.54408,-4.8 -2.28968,-2.04423 -3.10968,-2.27027 -8.2,-2.26044 -6.72603,0.013 -9.25592,0.58217 -9.25592,2.08238 0,0.60868 -0.57851,1.1067 -1.28559,1.1067 -0.8082,0 -1.11633,0.44107 -0.82979,1.1878 0.26793,0.69819 -0.19142,1.53417 -1.11441,2.02814 -1.08503,0.58069 -1.57021,1.67623 -1.57021,3.54554 0,1.48785 -0.45,2.85518 -1,3.03852 -0.66992,0.2233 -1,2.13777 -1,5.8 0,3.66222 0.33008,5.5767 1,5.8 0.61921,0.2064 1,1.83111 1,4.26666 0,2.66952 0.33015,3.93334 1.02751,3.93334 0.56514,0 1.66549,1.08 2.44524,2.4 0.80164,1.35707 2.09334,2.4 2.97249,2.4 0.85512,0 1.55476,0.54 1.55476,1.2 0,0.96 1.2,1.2 6,1.2 4.8,0 6,-0.24 6,-1.2 0,-0.66 0.54,-1.2 1.2,-1.2 0.66,0 1.2,-0.50149 1.2,-1.11441 0,-0.61293 0.54,-1.32162 1.2,-1.57489 1.59602,-0.61245 1.71016,-7.7107 0.124,-7.7107 -1.08035,0 -3.724,-2.45837 -3.724,-3.46299 0,-0.29535 3.78,-0.53701 8.4,-0.53701 5.06667,0 8.4,0.31746 8.4,0.8 0,0.44 -0.54,0.8 -1.2,0.8 -0.66,0 -1.2,0.54 -1.2,1.2 0,0.66 -0.54,1.2 -1.2,1.2 -0.93154,0 -1.2,1.0596 -1.2,4.73643 0,4.61224 -0.063,4.75027 -2.4,5.26357 -1.32,0.28992 -2.4,0.82992 -2.4,1.2 0,0.37008 -1.08,0.91008 -2.4,1.2 -1.32,0.28992 -2.4,0.85853 -2.4,1.26357 0,0.40766 -4.28573,0.73643 -9.6,0.73643 -5.86666,0 -9.6,-0.31111 -9.6,-0.8 z m 48.8,0 c 0,-0.44 1.23448,-0.8 2.74328,-0.8 2.67958,0 2.76092,-0.0975 3.50281,-4.2 0.41775,-2.31 0.6756,-10.14 0.57302,-17.4 -0.26307,-18.61846 -0.11235,-17.49253 -2.41911,-18.07149 -1.43589,-0.36038 -2,-1.04161 -2,-2.41524 0,-1.89014 0.0967,-1.91327 8,-1.91327 h 8 v 2 c 0,1.59015 -0.40241,2 -1.96375,2 -1.65237,0 -2.03823,0.47568 -2.43349,3 -0.25836,1.65 -0.62692,3.99627 -0.81904,5.21393 -0.19211,1.21766 -0.1281,3.82766 0.14224,5.8 l 0.49152,3.58607 h 11.51833 11.51832 l -0.22706,-8.6 -0.22706,-8.6 -2.64857,-0.25431 c -1.59939,-0.15357 -2.52432,-0.62892 -2.33492,-1.2 0.20866,-0.62913 3.17063,-1.0217 8.84857,-1.17276 7.08004,-0.18836 8.53492,-0.0265 8.53492,0.94932 0,0.74244 -0.95908,1.26884 -2.6,1.42706 l -2.6,0.25069 -0.22604,17.6 c -0.12432,9.68 -0.0274,18.41 0.21524,19.4 0.33474,1.36542 1.01704,1.8 2.82604,1.8 1.58645,0 2.38476,0.4017 2.38476,1.2 0,0.99048 -1.46667,1.2 -8.4,1.2 -4.66824,0 -8.40001,-0.3318 -8.40001,-0.74686 0,-0.41078 0.99,-0.86078 2.2,-1 l 2.20001,-0.25314 v -9.6 -9.6 l -10.93905,-0.22218 c -10.76293,-0.2186 -10.94887,-0.19284 -11.54856,1.6 -0.85174,2.54641 -0.86441,11.62635 -0.0213,15.22218 0.61176,2.6089 1.00366,3 3.00616,3 1.26648,0 2.30268,0.36 2.30268,0.8 0,0.48889 -3.73333,0.8 -9.6,0.8 -5.86666,0 -9.6,-0.31111 -9.6,-0.8 z m 12.61362,-63.50067 c -0.74224,-0.74224 -3.80392,-1.20924 -9.40184,-1.43409 -5.51513,-0.22151 -8.40922,-0.65759 -8.62314,-1.29933 -0.18565,-0.55696 -1.79375,-0.96591 -3.79816,-0.96591 -2.02328,0 -3.97774,-0.50155 -4.67619,-1.2 -0.7014,-0.70139 -2.65603,-1.2 -4.70424,-1.2 -1.92733,0 -4.20305,-0.52855 -5.05714,-1.17456 -0.8541,-0.646 -2.69719,-1.186 -4.09576,-1.2 -1.39858,-0.014 -3.02165,-0.50423 -3.60684,-1.08943 -0.58519,-0.58518 -2.49807,-1.29669 -4.25086,-1.58113 -1.75277,-0.28444 -3.3059,-0.87425 -3.45138,-1.31069 -0.14548,-0.43645 -1.49516,-1.02441 -2.99929,-1.30658 -1.50413,-0.28218 -2.56042,-0.79517 -2.3473,-1.14 0.48558,-0.78568 -3.4026,-1.81495 -4.43827,-1.17488 -0.41976,0.25944 -0.76321,-0.0506 -0.76321,-0.68879 0,-0.63827 -0.94348,-1.39729 -2.09664,-1.68671 -1.15315,-0.28942 -2.61886,-1.04845 -3.25714,-1.68673 -0.63827,-0.63828 -1.85479,-1.1605 -2.70336,-1.1605 -0.84857,0 -1.54286,-0.54 -1.54286,-1.2 0,-0.8 -0.8,-1.2 -2.4,-1.2 -1.32,0 -2.4,-0.36 -2.4,-0.8 0,-0.44 -0.49801,-0.8 -1.10669,-0.8 -0.60868,0 -1.29498,-0.72 -1.52511,-1.6 -0.28273,-1.08119 -1.09121,-1.6 -2.4933,-1.6 -1.31102,0 -2.0749,-0.44179 -2.0749,-1.2 0,-0.66667 -0.71111,-1.2 -1.6,-1.2 -0.88889,0 -1.6,-0.53334 -1.6,-1.2 0,-0.74667 -0.75555,-1.2 -2,-1.2 -1.24445,0 -2,-0.45334 -2,-1.2 0,-0.66667 -0.71111,-1.2 -1.6,-1.2 -0.88888,0 -1.599997,-0.53334 -1.599997,-1.2 0,-0.66 -0.54,-1.2 -1.2,-1.2 -0.66,0 -1.2,-0.54 -1.2,-1.2 0,-0.74667 -0.755552,-1.2 -2,-1.2 -1.244448,0 -2,-0.45334 -2,-1.2 0,-0.66667 -0.711112,-1.2 -1.6,-1.2 -0.888888,0 -1.6,-0.53334 -1.6,-1.2 0,-0.66 -0.54,-1.2 -1.2,-1.2 -0.66,0 -1.2,-0.36 -1.2,-0.8 0,-1.03756 -2.962448,-4 -4,-4 -0.44,0 -0.8,-0.54 -0.8,-1.2 0,-0.66 -0.54,-1.2 -1.2,-1.2 -0.66,0 -1.2,-0.54 -1.2,-1.2 0,-0.66 -0.54,-1.2 -1.2,-1.2 -0.66,0 -1.2,-0.54 -1.2,-1.2 0,-0.66 -0.54,-1.2 -1.2,-1.2 -0.66,0 -1.2,-0.54 -1.2,-1.2 0,-0.66 -0.54,-1.2 -1.2,-1.2 -0.666667,0 -1.2,-0.71112 -1.2,-1.6 0,-0.88889 -0.533334,-1.6 -1.2,-1.6 -0.66,0 -1.2,-0.54 -1.2,-1.2 0,-0.66 -0.36,-1.2 -0.8,-1.2 -1.398359,0 -4.000001,-3.13831 -4.000001,-4.82511 0,-0.89381 -0.54,-1.83233 -1.2,-2.08559 -0.66,-0.25327 -1.2,-0.96197 -1.2,-1.5749 0,-0.61292 -0.549,-1.1144 -1.22,-1.1144 -0.715555,0 -1.418469,-0.99236 -1.7,-2.4 -0.264,-1.32 -0.975,-2.4 -1.58,-2.4 -0.605,0 -1.1,-0.54 -1.1,-1.2 0,-0.66 -0.331396,-1.2 -0.736436,-1.2 -0.405039,0 -0.973643,-1.08 -1.263564,-2.4 -0.289921,-1.32 -0.829921,-2.4 -1.2,-2.4 -0.370079,0 -0.910079,-1.08 -1.2,-2.4 -0.289921,-1.32 -1.038525,-2.4 -1.663564,-2.4 -0.663257,0 -1.136436,-0.79196 -1.136436,-1.90205 0,-1.04612 -0.513421,-2.32815 -1.140934,-2.84893 -0.627514,-0.52079 -1.765001,-2.99487 -2.527748,-5.49796 -0.762748,-2.50309 -1.847724,-5.45106 -2.411059,-6.55106 -0.563333,-1.1 -1.244037,-3.36001 -1.512673,-5.02224 -0.268636,-1.66222 -0.784769,-2.83908 -1.146964,-2.61523 -0.362194,0.22385 -0.896404,-1.38615 -1.187133,-3.57777 -0.290728,-2.19162 -0.831054,-3.98477 -1.200722,-3.98477 -0.369669,0 -0.833147,-3.06788 -1.029952,-6.8175 -0.196806,-3.74963 -0.78195,-7.24163 -1.300322,-7.76 -1.216967,-1.21697 -1.355016,-39.0225 -0.142493,-39.0225 0.449673,0 0.8,-2.23333 0.8,-5.1 0,-6.09502 0.729506,-10.23799 1.697403,-9.6398 0.386428,0.23883 0.75743,-0.39701 0.824448,-1.41298 0.06702,-1.01597 0.205493,-2.20722 0.307721,-2.64722 0.102227,-0.44 0.227394,-1.79 0.278148,-3 0.05794,-1.3812 0.538894,-2.2 1.29228,-2.2 0.838095,0 1.2,-0.84444 1.2,-2.8 0,-1.54 0.312599,-2.8 0.694665,-2.8 0.382065,0 0.898842,-1.52225 1.148393,-3.3828 0.249551,-1.86053 0.825554,-3.50673 1.280008,-3.65822 0.454453,-0.15148 1.057741,-1.50923 1.340639,-3.0172 0.292512,-1.55923 0.993532,-2.74178 1.625328,-2.74178 0.651698,0 1.110967,-0.82679 1.110967,-2 0,-1.24445 0.453334,-2 1.2,-2 0.66,0 1.2,-0.69429 1.2,-1.54285 0,-0.84858 0.54,-2.08286 1.2,-2.742858 0.66,-0.66 1.2,-2.12572 1.2,-3.25714 0,-1.29524 0.444445,-2.05715 1.2,-2.05715 0.666667,0 1.2,-0.71111 1.2,-1.6 0,-0.88 0.500973,-1.6 1.113274,-1.6 0.612301,0 1.339159,-0.9 1.615242,-2 0.276082,-1.1 0.855109,-2 1.286726,-2 0.431617,0 0.784758,-0.72 0.784758,-1.6 0,-0.88889 0.533334,-1.6 1.2,-1.6 0.742599,0 1.2,-0.75277 1.2,-1.97489 0,-1.40158 0.338636,-1.84495 1.166503,-1.52726 0.778036,0.29856 1.339746,-0.24263 1.686726,-1.62511 0.286124,-1.14001 1.021197,-2.07274 1.633498,-2.07274 0.612301,0 1.113274,-0.54 1.113274,-1.2 0,-0.66 0.36,-1.2 0.8,-1.2 0.44,0 0.8,-0.54 0.8,-1.2 0,-0.66 0.54,-1.2 1.2,-1.2 0.66,0 1.2,-0.54 1.2,-1.2 0,-0.66 0.573703,-1.2 1.274896,-1.2 0.701192,0 1.46318,-0.72 1.693305,-1.6 0.230124,-0.88 0.916422,-1.6 1.525104,-1.6 0.608682,0 1.106695,-0.38571 1.106695,-0.85714 0,-1.00273 1.989351,-3.136625 2.942856,-3.15668 0.959536,-0.02018 4.257144,-3.660007 4.257144,-4.698936 0,-0.487983 0.54,-0.887243 1.2,-0.887243 0.66,0 1.2,-0.54 1.2,-1.2 0,-0.66 0.54,-1.2 1.2,-1.2 0.66,0 1.2,-0.331396 1.2,-0.736436 0,-0.405039 1.08,-0.973643 2.4,-1.263564 1.32,-0.289921 2.4,-1.038525 2.4,-1.663564 0,-0.62504 0.54,-1.136436 1.2,-1.136436 0.66,0 1.2,-0.54 1.2,-1.2 0,-0.66 0.54,-1.2 1.199997,-1.2 0.66,0 1.2,-0.54 1.2,-1.2 0,-0.666666 0.71112,-1.2 1.6,-1.2 0.88,0 1.6,-0.353142 1.6,-0.784758 0,-0.431617 0.9,-1.010644 2,-1.286727 1.1,-0.276082 2,-1.002941 2,-1.615241 0,-0.612301 0.5513,-1.113274 1.22511,-1.113274 0.67381,0 1.43232,-0.54 1.68559,-1.2 0.25327,-0.66 0.93625,-1.2 1.51775,-1.2 0.5815,0 1.55338,-0.496108 2.15973,-1.102463 0.60635,-0.606354 2.25207,-1.354957 3.65714,-1.663564 1.40507,-0.308606 2.55468,-0.892498 2.55468,-1.297537 0,-0.40504 0.9,-0.736436 2,-0.736436 1.21675,0 2,-0.455751 2,-1.16375 0,-0.696612 1.12394,-1.374602 2.8,-1.689033 1.60366,-0.300848 2.8,-0.999961 2.8,-1.63625 0,-0.701075 0.88548,-1.110967 2.4,-1.110967 1.32,0 2.4,-0.36 2.4,-0.8 0,-0.44 1.08,-0.8 2.4,-0.8 1.51008,0 2.4,-0.410368 2.4,-1.106696 0,-1.146874 2.33911,-2.063423 5.31441,-2.082381 0.94293,-0.006 1.92163,-0.550924 2.1749,-1.210924 0.3133,-0.816465 1.59175,-1.2 4,-1.2 2.40824,0 3.68669,-0.383534 4,-1.2 0.33134,-0.863476 1.68274,-1.2 4.81892,-1.2 2.62149,0 4.48302,-0.37374 4.67105,-0.937808 0.17529,-0.525889 2.48011,-1.094592 5.24735,-1.294756 2.82479,-0.204327 5.32694,-0.829517 5.85201,-1.462191 0.65351,-0.787427 2.94592,-1.105245 7.97211,-1.105245 6.49565,0 9.93079,-0.967136 6.55905,-1.846653 -0.77539,-0.20226 9.8402,-0.409505 23.5902,-0.460546 21.73014,-0.08066 25.00001,0.06415 25.00001,1.107199 0,0.986667 1.42222,1.2 8,1.2 6.57777,0 8,0.213334 8,1.2 0,0.928947 1.04968,1.2 4.64709,1.2 2.84755,0 5.24845,0.454837 6.2,1.174558 0.8541,0.646006 3.08291,1.186006 4.95291,1.2 2.47758,0.01854 3.4,0.351002 3.4,1.225442 0,0.906667 0.97777,1.2 4,1.2 3.02222,0 4,0.293334 4,1.2 0,0.888889 0.93333,1.2 3.6,1.2 2.66666,0 3.6,0.311112 3.6,1.200001 0,0.8 0.8,1.2 2.4,1.2 1.6,0 2.4,0.4 2.4,1.2 0,0.8 0.8,1.2 2.4,1.2 1.55296,0 2.4,0.405632 2.4,1.149313 0,0.711905 0.98951,1.24472 2.6,1.4 1.55647,0.150071 2.51973,0.652045 2.4,1.250687 -0.1216,0.607998 0.67111,1 2.02221,1 1.23221,0 2.83252,0.712796 3.59216,1.6 0.75348,0.88 2.11474,1.6 3.02501,1.6 0.91027,0 1.45066,0.330706 1.20085,0.734902 -0.24981,0.404197 0.58545,0.963246 1.85611,1.242331 1.27067,0.279087 3.49866,1.56838 4.95107,2.865098 1.45242,1.296718 3.0774,2.357669 3.61108,2.357669 0.53368,0 1.17754,0.54 1.43081,1.2 0.25327,0.66 1.01178,1.2 1.68559,1.2 0.67381,0 1.22511,0.54 1.22511,1.2 0,0.66 0.54,1.2 1.2,1.2 0.66,0 1.2,0.54 1.2,1.2 0,0.66 0.50149,1.2 1.11441,1.2 0.61292,0 1.32162,0.54 1.57489,1.2 0.25327,0.66 1.37178,1.2 2.48559,1.2 1.26676,0 2.02511,0.449366 2.02511,1.2 0,0.66 0.54,1.2 1.2,1.2 0.66,0 1.2,0.54 1.2,1.2 0,0.66 0.54,1.2 1.2,1.2 0.66,0 1.2,0.54 1.2,1.2 0,0.666667 0.71111,1.2 1.6,1.2 0.88889,0 1.6,0.533334 1.6,1.2 0,0.66 0.36,1.2 0.8,1.2 0.44,0 0.8,0.54 0.8,1.2 0,0.659999 0.46689,1.199999 1.03753,1.199999 0.57064,0 1.92064,1.06476 3,2.36612 1.07936,1.30137 2.41247,2.38137 2.96247,2.4 0.55,0.0186 1,0.41107 1,0.87208 0,0.46101 0.83682,1.63101 1.85961,2.6 1.02278,0.96899 2.09148,2.3918 2.37489,3.1618 0.2834,0.77 1.02755,1.4 1.65367,1.4 0.6261,0 1.35394,0.85889 1.61741,1.90863 0.26347,1.04975 1.37627,2.75975 2.47291,3.8 1.09663,1.04025 2.00008,2.34137 2.00768,2.89137 0.008,0.55 0.55383,1 1.21383,1 0.8,0 1.2,0.8 1.2,2.4 0,1.41447 0.41975,2.4 1.02221,2.4 1.59556,0 3.77779,3.00904 3.77779,5.20915 0,1.23632 0.4548,1.99085 1.2,1.99085 0.8,0 1.2,0.8 1.2,2.399998 0,1.54034 0.40706,2.4 1.13643,2.4 0.62504,0 1.36704,1.04993 1.64889,2.33317 0.28185,1.28324 1.03045,2.53194 1.66357,2.7749 0.63311,0.24294 1.15111,1.35301 1.15111,2.46683 0,1.11381 0.36,2.0251 0.8,2.0251 0.44,0 0.8,1.21592 0.8,2.70205 0,1.48612 0.5199,3.13352 1.15534,3.66089 0.63544,0.52736 1.26544,2.28144 1.4,3.89795 0.13456,1.61651 0.5906,2.82247 1.01343,2.67991 1.1347,-0.38258 1.91135,2.1574 1.975,6.4592 0.0417,2.81946 0.36588,3.8 1.25623,3.8 0.97189,0 1.2,1.28364 1.2,6.75279 0,3.71403 0.36,6.97528 0.8,7.24721 0.4972,0.30729 0.8,7.72591 0.8,19.6 0,11.8741 -0.3028,19.29272 -0.8,19.6 -0.44,0.27194 -0.8,3.53319 -0.8,7.24722 0,5.46914 -0.22811,6.75278 -1.2,6.75278 -0.87564,0 -1.20481,0.91902 -1.21779,3.40001 -0.0112,2.13697 -0.59894,4.14296 -1.58221,5.4 -0.90678,1.15926 -1.5719,3.2611 -1.58221,5 -0.01,1.65 -0.37779,3 -0.81779,3 -0.44,0 -0.8,1.09129 -0.8,2.4251 0,1.41766 -0.49851,2.61641 -1.2,2.88559 -0.68403,0.26249 -1.2,1.45563 -1.2,2.7749 0,1.46638 -0.4164,2.31441 -1.13643,2.31441 -0.62504,0 -1.37365,1.08 -1.66357,2.4 -0.28992,1.32 -0.85853,2.4 -1.26357,2.4 -0.40503,0 -0.73643,1.08 -0.73643,2.4 0,1.6 -0.4,2.4 -1.2,2.4 -0.66862,0 -1.2,0.71198 -1.2,1.60783 0,0.8843 -0.72,2.22431 -1.6,2.97779 -0.88,0.75348 -1.6,1.82995 -1.6,2.39217 0,0.56221 -0.54,1.02221 -1.2,1.02221 -0.74667,0 -1.2,0.75555 -1.2,2 0,1.1 -0.36,2 -0.8,2 -0.44,0 -0.8,0.45999 -0.8,1.0222 0,0.56222 -0.72,1.63869 -1.6,2.39217 -0.88,0.75348 -1.6,2.09349 -1.6,2.97779 0,0.88432 -0.35589,1.60784 -0.79086,1.60784 -1.21729,0 -4.00914,2.63073 -4.00914,3.77779 0,0.56221 -0.54,1.02221 -1.2,1.02221 -0.66,0 -1.2,0.50148 -1.2,1.1144 0,0.61293 -0.54,1.32163 -1.2,1.5749 -0.66,0.25326 -1.2,1.01178 -1.2,1.68559 0,0.67381 -0.54,1.22511 -1.2,1.22511 -0.66,0 -1.2,0.36 -1.2,0.8 0,0.44 -0.54,0.8 -1.2,0.8 -0.66,0 -1.2,0.54 -1.2,1.2 0,0.66 -0.54,1.2 -1.2,1.2 -0.66667,0 -1.2,0.71111 -1.2,1.6 0,0.88888 -0.53334,1.6 -1.2,1.6 -0.66,0 -1.2,0.54 -1.2,1.2 0,0.66 -0.56571,1.2 -1.25715,1.2 -1.61683,0 -3.54285,1.92602 -3.54285,3.54285 0,0.72381 -0.67879,1.25715 -1.6,1.25715 -0.88889,0 -1.6,0.53333 -1.6,1.2 0,0.74666 -0.75555,1.2 -2,1.2 -1.1,0 -2,0.36 -2,0.8 0,0.44 -0.54,0.8 -1.2,0.8 -0.66,0 -1.2,0.5737 -1.2,1.27489 0,0.7012 -0.72,1.46318 -1.6,1.69331 -0.88,0.23013 -1.6,0.91642 -1.6,1.5251 0,0.64715 -0.8305,1.1067 -2,1.1067 -1.24445,0 -2,0.45333 -2,1.2 0,0.66666 -0.71111,1.2 -1.6,1.2 -0.88,0 -1.6,0.32097 -1.6,0.71327 0,0.3923 -0.9,0.93916 -2,1.21524 -1.1,0.27609 -2,1.03511 -2,1.68673 0,0.65161 -0.72,1.18476 -1.6,1.18476 -0.88889,0 -1.6,0.53333 -1.6,1.2 0,0.79551 -0.79559,1.2 -2.36025,1.2 -1.29814,0 -2.64814,0.47922 -3,1.06493 -0.78022,1.29876 -5.59722,3.73507 -7.38487,3.73507 -0.71461,0 -1.91578,0.72 -2.66926,1.6 -0.75348,0.88 -2.09349,1.6 -2.97779,1.6 -0.88431,0 -1.60783,0.36 -1.60783,0.8 0,0.44 -0.51429,0.8 -1.14286,0.8 -0.62858,0 -1.74124,0.59838 -2.4726,1.32974 -1.12402,1.12403 -1.44038,1.15497 -2.0449,0.2 -0.43977,-0.69473 -0.71986,-0.76916 -0.7274,-0.19331 -0.006,0.51504 -1.18224,1.19027 -2.61224,1.50051 -1.43,0.31023 -2.83163,0.928 -3.11473,1.3728 -0.28311,0.44481 -2.34643,0.98475 -4.58519,1.19986 -2.23876,0.21512 -3.8992,0.66823 -3.68987,1.00693 0.5554,0.89866 -1.69735,1.58347 -5.20897,1.58347 -1.68736,0 -3.21276,0.43455 -3.3898,0.96567 -0.19715,0.59144 -2.54816,1.09146 -6.06667,1.29027 -4.20941,0.23786 -5.74477,0.6212 -5.74477,1.43434 0,0.85798 -1.52033,1.10972 -6.70205,1.10972 -4.98141,0 -6.95772,0.30808 -7.69795,1.2 -1.4182,1.70882 -44.88422,1.80149 -46.58639,0.0993 z m 38.0336,-9.17836 c 2.83108,-0.0737 4.4562,-0.43003 4.15845,-0.91181 -0.28027,-0.45349 0.0409,-0.5876 0.75278,-0.31441 0.87998,0.33768 1.24156,-0.0145 1.24156,-1.20916 0,-1.84044 1.21928,-2.28527 1.8792,-0.68559 0.22689,0.55 0.21189,-0.17 -0.0334,-1.6 -0.35148,-2.04959 -0.17066,-2.6 0.85413,-2.6 1.67619,0 1.76132,-3.65179 0.1,-4.28931 -0.88313,-0.33888 -1.2,-1.73459 -1.2,-5.28559 3e-5,-2.65381 -0.31349,-4.8251 -0.69667,-4.8251 -0.38319,0 -0.94842,-2.88565 -1.25608,-6.41256 -0.30766,-3.52691 -0.86485,-6.22376 -1.2382,-5.99302 -0.37336,0.23074 -0.91673,-0.6636 -1.20749,-1.98744 -0.46471,-2.11582 -0.86677,-2.40698 -3.32376,-2.40698 -3.87139,0 -3.454,-2.5883 0.53131,-3.29469 1.68752,-0.29911 2.15836,-0.5796 1.19092,-0.70946 -0.88,-0.11813 0.724,-0.47753 3.56444,-0.79866 2.84045,-0.32114 5.30045,-0.99188 5.46668,-1.49055 0.54709,-1.64129 1.76888,-0.94523 1.76888,1.00776 0,1.05293 -0.54,2.12163 -1.2,2.3749 -0.91757,0.3521 -1.2,1.85842 -1.2,6.4 0,4.54158 0.28243,6.0479 1.2,6.4 0.89799,0.34459 1.2,1.78183 1.2,5.7107 0,3.92886 0.302,5.3661 1.2,5.71069 0.81468,0.31263 1.2,1.58897 1.2,3.9749 v 3.51441 h 6.4 c 3.73333,0 6.4,-0.33334 6.4,-0.8 0,-0.44 0.91129,-0.8 2.0251,-0.8 1.19857,0 2.23594,-0.57141 2.54165,-1.4 0.28409,-0.77 0.80371,-1.59563 1.15469,-1.83473 0.35098,-0.2391 0.77312,-1.3191 0.93808,-2.4 0.16495,-1.0809 0.80404,-1.96527 1.4202,-1.96527 0.79964,0 1.18812,1.28908 1.35733,4.50397 0.22339,4.24423 0.11959,4.53346 -1.8,5.01524 -1.5698,0.394 -2.03147,1.01241 -2.01273,2.69603 0.0208,1.87042 0.14165,1.98333 0.83976,0.78476 0.47654,-0.81818 1.76861,-1.4 3.109,-1.4 1.26147,0 2.4288,-0.40566 2.59407,-0.90147 0.16527,-0.4958 2.26527,-1.08465 4.66667,-1.30855 2.45944,-0.22931 4.64556,-0.88373 5.00593,-1.49853 0.35186,-0.6003 1.70186,-1.09145 3,-1.09145 1.46153,0 2.28409,-0.38077 2.16025,-1 -0.12918,-0.64587 1.00404,-1.08711 3.2,-1.246 2.31496,-0.16749 3.4,-0.61427 3.4,-1.4 0,-0.78553 0.89404,-1.154 2.8,-1.154 1.95555,0 2.8,-0.36191 2.8,-1.2 0,-0.75063 0.75834,-1.2 2.0251,-1.2 1.11382,0 2.23233,-0.54 2.48559,-1.2 0.26249,-0.68403 1.45564,-1.2 2.7749,-1.2 1.52392,0 2.31441,-0.40987 2.31441,-1.2 0,-0.66 0.54,-1.2 1.2,-1.2 0.66,0 1.2,-0.3314 1.2,-0.73643 0,-0.40504 1.08,-0.97365 2.4,-1.26357 1.65059,-0.36253 2.4,-1.00689 2.4,-2.06357 0,-1.0031 0.5554,-1.53643 1.6,-1.53643 0.88,0 1.6,-0.36 1.6,-0.8 0,-0.44 0.9,-0.8 2,-0.8 1.24445,0 2,-0.45334 2,-1.2 0,-0.66667 0.71111,-1.2 1.6,-1.2 0.88,0 1.6,-0.53315 1.6,-1.18476 0,-0.65162 0.87395,-1.40411 1.94211,-1.6722 1.06817,-0.26809 2.14562,-1.01777 2.39435,-1.66595 0.24873,-0.64817 0.81732,-0.95287 1.26354,-0.67709 0.44621,0.27577 1.02727,-0.0614 1.29124,-0.7493 0.26397,-0.68789 0.98142,-1.2507 1.59435,-1.2507 0.61292,0 1.11441,-0.50149 1.11441,-1.11441 0,-0.61293 0.54,-1.32163 1.2,-1.5749 0.66,-0.25326 1.2,-1.01177 1.2,-1.68559 0,-0.67381 0.54,-1.2251 1.2,-1.2251 0.66,0 1.2,-0.36 1.2,-0.8 0,-0.44 0.54,-0.8 1.2,-0.8 0.66,0 1.21525,-0.45 1.23388,-1 0.0186,-0.55 1.09863,-1.88312 2.4,-2.96248 1.30137,-1.07936 2.36612,-2.42936 2.36612,-3 0,-0.57064 0.36,-1.03752 0.8,-1.03752 0.44,0 1.52,-0.72 2.4,-1.6 0.88,-0.88 1.6,-1.96 1.6,-2.4 0,-0.44 0.54,-0.8 1.2,-0.8 0.66,0 1.2,-0.54 1.2,-1.2 0,-0.66 0.54,-1.2 1.2,-1.2 0.66,0 1.2,-0.5513 1.2,-1.22511 0,-0.67381 0.54,-1.43233 1.2,-1.68559 0.66,-0.25327 1.2,-1.15327 1.2,-2 0,-0.84674 0.54,-1.74674 1.2,-2 0.66,-0.25327 1.2,-1.14197 1.2,-1.9749 0,-0.83292 0.51574,-1.5144 1.14609,-1.5144 0.63035,0 1.3944,-0.78235 1.69788,-1.73856 0.51794,-1.63188 1.06191,-2.45633 3.25048,-4.92652 0.49196,-0.55525 1.14621,-1.80276 1.45392,-2.77224 0.30769,-0.96948 0.89519,-1.76268 1.30554,-1.76268 0.41034,0 0.74609,-1.0913 0.74609,-2.42511 0,-1.34866 0.50061,-2.61721 1.1278,-2.85789 0.62029,-0.23803 1.35806,-1.35021 1.63949,-2.47153 0.28144,-1.12131 1.03392,-2.56098 1.6722,-3.19926 0.63828,-0.63827 1.16051,-2.21478 1.16051,-3.50336 0,-1.28857 0.36,-2.34285 0.8,-2.34285 0.44,0 0.8,-1.44352 0.8,-3.20784 0,-2.21784 0.49378,-3.63062 1.6,-4.57779 1.11549,-0.95512 1.6,-2.35995 1.6,-4.63926 0,-1.79812 0.52855,-3.96812 1.17456,-4.82221 0.75872,-1.00312 1.18356,-3.48493 1.2,-7.01005 0.0185,-3.96425 0.38417,-5.81588 1.33677,-6.76847 1.15656,-1.15655 1.26241,-3.19086 0.89685,-17.23579 -0.24388,-9.36959 -0.7466,-16.13318 -1.22132,-16.43153 -0.44376,-0.27888 -0.94281,-3.53889 -1.10901,-7.24446 -0.19748,-4.40289 -0.64448,-6.85148 -1.29002,-7.06666 -0.57958,-0.19319 -0.98783,-1.751 -0.98783,-3.76931 0,-2.78344 -0.30977,-3.52103 -1.62296,-3.86444 -0.89263,-0.23343 -1.57,-0.72541 -1.50527,-1.09331 0.45736,-2.59918 -0.21896,-6.66889 -1.10826,-6.66889 -0.6291,0 -1.11452,-1.17915 -1.23502,-3 -0.10918,-1.65 -0.54276,-3.12 -0.96351,-3.26666 -0.42073,-0.14667 -0.76498,-1.23667 -0.76498,-2.42221 0,-1.18555 -0.72,-2.77202 -1.6,-3.5255 -0.88,-0.75348 -1.6,-2.09349 -1.6,-2.9778 0,-0.89584 -0.53139,-1.60783 -1.2,-1.60783 -0.67494,0 -1.2,-0.71486 -1.2,-1.63377 0,-1.51818 -0.43844,-2.27308 -2.96051,-5.097348 -0.52828,-0.59158 -1.1973,-2.01909 -1.48672,-3.17224 -0.28943,-1.15315 -1.0272,-2.09664 -1.6395,-2.09664 -0.6123,0 -1.11327,-0.54 -1.11327,-1.2 0,-0.66 -0.5114,-1.2 -1.13643,-1.2 -0.62504,0 -1.37365,-1.08 -1.66357,-2.4 -0.28992,-1.32 -0.85853,-2.4 -1.26357,-2.4 -0.40503,0 -0.73643,-0.72 -0.73643,-1.6 0,-0.88889 -0.53334,-1.6 -1.2,-1.6 -0.66,0 -1.2,-0.36 -1.2,-0.8 0,-0.44 -0.49802,-0.8 -1.1067,-0.8 -0.60868,0 -1.29497,-0.72 -1.5251,-1.6 -0.23013,-0.88 -0.99211,-1.6 -1.69331,-1.6 -0.70119,0 -1.27489,-0.54 -1.27489,-1.2 0,-0.66 -0.36,-1.2 -0.8,-1.2 -0.44,0 -0.8,-0.54 -0.8,-1.2 0,-0.66 -0.50149,-1.2 -1.11441,-1.2 -0.61293,0 -1.32162,-0.54 -1.5749,-1.2 -0.25326,-0.66 -1.01177,-1.2 -1.68559,-1.2 -0.67381,0 -1.2251,-0.54 -1.2251,-1.2 0,-0.66 -0.54,-1.2 -1.2,-1.2 -0.66,0 -1.2,-0.35588 -1.2,-0.79085 0,-1.2173 -2.63074,-4.00915 -3.77779,-4.00915 -0.56222,0 -1.02221,-0.54 -1.02221,-1.199999 0,-0.66 -0.54,-1.2 -1.2,-1.2 -0.66,0 -1.2,-0.54 -1.2,-1.2 0,-0.66 -0.54,-1.2 -1.2,-1.2 -0.66,0 -1.2,-0.54 -1.2,-1.2 0,-0.807557 -0.8503,-1.220655 -2.6,-1.263157 -1.43,-0.03474 -2.15,-0.244737 -1.6,-0.466667 1.72084,-0.694376 1.09213,-1.870176 -1,-1.870176 -1.19473,0 -2,-0.457571 -2,-1.136436 0,-0.625039 -1.08,-1.373643 -2.4,-1.663564 -1.32,-0.289921 -2.4,-1.038525 -2.4,-1.663564 0,-0.62504 -0.54,-1.136436 -1.2,-1.136436 -0.66,0 -1.2,-0.36 -1.2,-0.8 0,-0.44 -0.69429,-0.8 -1.54286,-0.8 -0.84857,0 -2.01857,-0.470143 -2.6,-1.044763 -0.58143,-0.57462 -1.68714,-1.283321 -2.45714,-1.574892 -0.77,-0.291571 -1.4,-0.901428 -1.4,-1.355237 0,-0.45381 -0.54352,-0.825108 -1.20783,-0.825108 -0.66431,0 -1.82432,-0.72 -2.5778,-1.6 -0.75348,-0.88 -2.16871,-1.6 -3.14495,-1.6 -0.97625,0 -1.98037,-0.332303 -2.23138,-0.738451 -0.25102,-0.406148 -1.53226,-0.974752 -2.84722,-1.263564 -1.31495,-0.288812 -2.39082,-0.827906 -2.39082,-1.197985 0,-0.370079 -1.14961,-0.925367 -2.55468,-1.233974 -1.40508,-0.308606 -3.0508,-1.057209 -3.65715,-1.663564 -0.60635,-0.606354 -2.12674,-1.102462 -3.37865,-1.102462 -1.25191,0 -2.408,-0.395407 -2.56908,-0.878684 -0.1611,-0.483276 -1.98391,-1.069284 -4.0507,-1.302241 -2.06678,-0.232957 -3.57243,-0.723485 -3.34587,-1.090062 0.22656,-0.366577 -1.3788,-0.904052 -3.56747,-1.194388 -2.23275,-0.296185 -4.16522,-1.012175 -4.40279,-1.631255 -0.28673,-0.747228 -1.80237,-1.10337 -4.69561,-1.10337 -2.51792,0 -4.90986,-0.482305 -5.8251,-1.174558 -1.12226,-0.848831 -3.80318,-1.181613 -9.66731,-1.2 -6.45827,-0.02025 -8.20839,-0.270363 -8.5749,-1.225443 -0.68573,-1.786996 -39.0027,-1.793705 -40.78926,-0.0071 -0.91075,0.910738 -1.30267,0.95804 -1.65715,0.2 -0.36863,-0.788304 -0.56043,-0.786833 -0.93095,0.0071 -0.32488,0.696165 -2.75556,1 -8,1 -6.16297,0 -7.53334,0.218289 -7.53334,1.200001 0,0.933333 -1.06666,1.2 -4.8,1.2 -3.73333,0 -4.8,0.266666 -4.8,1.2 0,0.933333 -1.06666,1.2 -4.8,1.2 -3.5308,0 -4.8,0.289787 -4.8,1.095958 0,0.712942 -1.31886,1.244612 -3.77377,1.521317 -2.07557,0.233947 -3.90177,0.809369 -4.05823,1.278714 -0.15644,0.469346 -1.51824,1.084818 -3.02622,1.367716 -1.50798,0.282898 -2.74178,0.802652 -2.74178,1.155009 0,0.352357 -1.44,0.883935 -3.2,1.181286 -1.76,0.29735 -3.2,0.840389 -3.2,1.206754 0,0.366364 -1.1496,0.918613 -2.55468,1.227219 -1.40507,0.308607 -3.05079,1.05721 -3.65714,1.663564 -0.60635,0.606355 -1.79674,1.102463 -2.64532,1.102463 -0.84857,0 -1.54286,0.54 -1.54286,1.2 0,0.746666 -0.75555,1.2 -2,1.2 -1.24445,0 -2,0.453334 -2,1.2 0,0.666666 -0.71111,1.2 -1.6,1.2 -0.88,0 -1.60551,0.45 -1.61225,1 -0.009,0.74875 -0.1822,0.731898 -0.68867,-0.06708 -0.54461,-0.85915 -0.77116,-0.820178 -1.16264,0.2 -0.26742,0.696895 -1.03752,1.26708 -1.71133,1.26708 -0.67381,0 -1.22511,0.54 -1.22511,1.2 0,0.718373 -0.7375,1.2 -1.83753,1.2 -1.06016,0 -2.66774,1.000978 -3.8,2.366123 -1.07936,1.301368 -2.25818,2.381368 -2.61961,2.4 -0.36143,0.01863 -1.19715,0.573877 -1.85715,1.233877 -0.66,0.66 -1.85229,1.2 -2.64955,1.2 -0.79989,0 -1.6465,0.753163 -1.889,1.680493 -0.24199,0.925347 -0.82315,1.443363 -1.29331,1.152787 -0.499535,-0.308728 -0.853847,0.155827 -0.853847,1.119507 0,0.930857 -0.521872,1.647213 -1.2,1.647213 -0.66,0 -1.2,0.36 -1.2,0.799999 0,0.44 -0.54,0.8 -1.2,0.8 -0.66,0 -1.2,0.54 -1.2,1.2 0,0.66 -0.54,1.2 -1.2,1.2 -0.66,0 -1.2,0.46 -1.2,1.02221 0,1.16429 -2.188184,3.21834 -4.286128,4.0234 -0.778408,0.2987 -1.191216,0.90563 -0.917368,1.34874 0.273856,0.44311 0.02664,0.81187 -0.549288,0.81947 -1.06832,0.0141 -4.647216,3.36879 -4.647216,4.35608 0,0.81931 -1.819306,2.45121 -3.4,3.04976 -0.77,0.29157 -1.4,1.08142 -1.4,1.75523 0,0.67382 -0.54,1.22511 -1.2,1.22511 -0.66,0 -1.2,0.54 -1.2,1.2 0,0.66 -0.331396,1.2 -0.736436,1.2 -0.40504,0 -0.973644,1.08 -1.263564,2.4 -0.289921,1.32 -0.858525,2.4 -1.263564,2.4 -0.40504,0 -0.736436,0.49802 -0.736436,1.1067 0,0.60868 -0.72,1.29497 -1.6,1.5251 -1.081186,0.28274 -1.6,1.09121 -1.6,2.49331 0,1.23327 -0.448901,2.07489 -1.106696,2.07489 -0.985911,0 -1.716477,1.35496 -2.513909,4.662468 -0.598726,2.48351 -1.201153,3.33753 -2.354248,3.33753 -0.773448,0 -1.225108,0.73734 -1.225108,2 0,1.24445 -0.453333,2 -1.2,2 -0.838095,0 -1.2,0.84445 -1.2,2.8 0,1.95555 -0.361905,2.8 -1.2,2.8 -0.864151,0 -1.2,0.88447 -1.2,3.16025 0,1.80146 -0.463784,3.43532 -1.078661,3.8 -0.593264,0.35186 -1.300508,2.05063 -1.571655,3.77502 -0.271146,1.7244 -0.829207,3.3444 -1.240135,3.6 -0.410928,0.25561 -1.004655,2.53066 -1.319393,5.05568 -0.314737,2.52501 -0.840397,4.42521 -1.16813,4.22267 -0.327735,-0.20255 -0.845915,2.95152 -1.151511,7.00906 -0.305596,4.05752 -0.896478,7.71932 -1.313072,8.13732 -0.985769,0.9891 -0.999761,29.81968 -0.01464,30.17334 0.408539,0.14666 0.999781,3.86666 1.313871,8.26666 0.314088,4.4 0.907126,8.21812 1.31786,8.48471 0.410733,0.26658 0.946891,1.97658 1.191462,3.8 0.244571,1.82342 0.79579,3.3153 1.224931,3.3153 0.42914,0 0.573038,0.54 0.319772,1.2 -0.253266,0.66 -0.111782,1.2 0.314409,1.2 0.426191,0 0.774892,0.99999 0.774892,2.2222 0,1.23222 0.712796,2.83252 1.6,3.59217 1.035871,0.88695 1.6,2.35995 1.6,4.17779 0,1.54432 0.36,2.80784 0.8,2.80784 0.44,0 0.8,1.08 0.8,2.4 0,1.6 0.4,2.4 1.2,2.4 0.715444,0 1.2,0.7358 1.2,1.8222 0,1.00222 0.72,2.43869 1.6,3.19217 0.88,0.75348 1.6,2.09349 1.6,2.97779 0,0.89585 0.531386,1.60784 1.2,1.60784 0.666667,0 1.2,0.71111 1.2,1.6 0,0.88 0.36,1.6 0.800001,1.6 0.44,0 0.8,0.9 0.8,2 0,1.46666 0.426666,2 1.6,2 1.066666,0 1.6,0.53333 1.6,1.6 0,0.88 0.353141,1.6 0.784758,1.6 0.431617,0 1.010644,0.9 1.286726,2 0.276083,1.1 1.002941,2 1.615242,2 0.612301,0 1.113274,0.54 1.113274,1.2 0,0.66 0.36,1.2 0.8,1.2 0.44,0 0.8,0.5737 0.8,1.27489 0,0.70119 0.72,1.46318 1.6,1.69331 0.88,0.23012 1.6,0.73642 1.6,1.1251 0,0.38868 0.54,0.7067 1.2,0.7067 0.66,0 1.2,0.53588 1.2,1.19085 0,1.54041 2.45796,4.40915 3.777792,4.40915 0.562216,0 1.022208,0.54 1.022208,1.2 0,0.66 0.348,1.2 0.773336,1.2 1.00656,0 6.426664,5.4201 6.426664,6.42666 0,0.42534 0.54,0.77334 1.2,0.77334 0.66,0 1.2,0.36 1.2,0.8 0,0.44 0.573704,0.8 1.274896,0.8 0.701192,0 1.463176,0.72 1.693301,1.6 0.23013,0.88 0.91643,1.6 1.52511,1.6 0.60868,0 1.10669,0.54 1.10669,1.2 0,1.04436 0.83419,1.36578 2.96039,1.14066 0.30822,-0.0326 0.83662,0.68737 1.17423,1.6 0.3376,0.91263 1.16542,1.65934 1.83961,1.65934 0.67417,0 1.22577,0.36 1.22577,0.8 0,0.44 0.9,0.8 2,0.8 1.24445,0 2,0.45333 2,1.2 0,0.66666 0.71111,1.2 1.6,1.2 0.88,0 1.6,0.50097 1.6,1.11327 0,0.6123 0.9,1.33916 2,1.61524 1.1,0.27609 2,0.85511 2,1.28673 0,0.43161 0.72,0.78476 1.6,0.78476 0.88889,0 1.6,0.53333 1.6,1.2 0,0.8 0.8,1.2 2.4,1.2 1.6,0 2.4,0.4 2.4,1.2 0,0.66 0.54,1.254 1.2,1.32 0.66,0.066 1.65,0.156 2.2,0.2 0.55,0.044 1.2584,0.71 1.57423,1.48 0.36381,0.88701 1.43864,1.4 2.93333,1.4 1.29751,0 2.47911,0.34425 2.62578,0.76498 0.14666,0.42075 1.61666,0.85433 3.26666,0.96351 1.82085,0.1205 3,0.60592 3,1.23502 0,0.649 1.03512,1.03649 2.76884,1.03649 1.77519,0 3.32584,0.59787 4.32095,1.666 0.92166,0.98928 2.28992,1.55795 3.3685,1.4 2.82091,-0.41311 2.82769,-2.20881 0.0105,-2.77225 -1.35783,-0.27157 -2.46877,-0.98875 -2.46877,-1.59375 0,-0.605 -0.54,-1.1 -1.2,-1.1 -0.66,0 -1.2,-0.56263 -1.2,-1.25029 0,-0.71166 -0.60311,-1.18894 -1.4,-1.10787 -2.58505,0.26295 -3.4,-0.0347 -3.4,-1.24184 0,-0.66 0.3126,-1.2 0.69467,-1.2 0.38206,0 0.8918,-1.46973 1.13273,-3.26607 0.24095,-1.79634 0.6244,-3.45239 0.85212,-3.68011 0.85908,-0.85909 2.12048,0.71762 2.12048,2.65054 0,1.10545 0.54,2.54993 1.2,3.20993 0.66,0.66 1.2,1.89428 1.2,2.74285 0,0.84857 0.51,1.54286 1.13334,1.54286 0.62333,0 1.25333,0.32678 1.4,0.72619 0.28689,0.78126 3.04664,1.09371 8.46666,0.95858 l 3.4,-0.0848 v -4.39086 c 0,-4.45206 -1.56743,-7.60914 -3.77779,-7.60914 -0.56221,0 -1.02221,-0.54 -1.02221,-1.2 0,-0.66 -0.54,-1.2 -1.2,-1.2 -0.66,0 -1.2,-0.54 -1.2,-1.2 0,-0.66 -0.45,-1.20413 -1,-1.20918 -1.92571,-0.0177 -4.05056,-6.01394 -3.58736,-10.12343 0.2365,-2.09822 0.8254,-3.94674 1.30868,-4.10783 0.48328,-0.16109 0.87868,-0.76091 0.87868,-1.33292 0,-0.57202 0.75623,-1.23779 1.6805,-1.47949 0.92534,-0.24199 1.44336,-0.82315 1.15278,-1.29331 -0.85251,-1.37939 9.04316,-1.51457 9.93554,-0.13573 0.23715,0.36643 1.24118,0.91901 2.23118,1.22797 0.99,0.30896 1.8,1.07748 1.8,1.70783 0,0.74009 0.85018,1.14609 2.4,1.14609 2.25568,0 2.4,0.18728 2.4,3.1144 0,2.03037 -0.41768,3.27469 -1.2,3.5749 -0.66,0.25326 -1.2,1.04178 -1.2,1.75226 0,2.83888 -2.0164,0.41154 -2.246,-2.70374 -0.13529,-1.8358 -0.58529,-3.33782 -1,-3.33782 -0.41469,0 -0.754,-0.5114 -0.754,-1.13644 0,-0.62504 -1.08314,-1.37433 -2.40698,-1.6651 -1.32384,-0.29076 -2.20259,-0.85937 -1.95278,-1.26356 0.2498,-0.4042 -0.46705,-0.7349 -1.59302,-0.7349 -1.12597,0 -2.04722,0.36 -2.04722,0.8 0,0.44 -0.54,0.8 -1.2,0.8 -0.66,0 -1.2,0.55129 -1.2,1.2251 0,0.67382 -0.54,1.43233 -1.2,1.68559 -0.66,0.25327 -1.2,0.95067 -1.2,1.54979 0,0.6396 0.49541,0.8992 1.2,0.62882 0.92999,-0.35687 1.2,0.18881 1.2,2.4251 0,2.03164 0.35513,2.8856 1.2,2.8856 0.66,0 1.2,0.54 1.2,1.2 0,0.66 0.54,1.2 1.2,1.2 0.66,0 1.2,0.54 1.2,1.2 0,0.66 0.54,1.2 1.2,1.2 0.66,0 1.2,0.54 1.2,1.2 0,0.66 0.54,1.2 1.2,1.2 0.66,0 1.2,0.55129 1.2,1.2251 0,0.67382 0.54,1.43233 1.2,1.68559 1.38377,0.53101 1.7604,9.08931 0.4,9.08931 -0.44,0 -0.8,0.45999 -0.8,1.02221 0,1.15294 -2.1825,3.21616 -4.23542,4.00393 -0.75052,0.288 -1.36458,0.89494 -1.36458,1.34875 0,0.45381 -1.35,0.83002 -3,0.83603 -3.71761,0.0135 -6.6,0.74828 -6.6,1.68238 0,0.38868 1.60212,0.7067 3.56025,0.7067 2.33299,0 3.79176,0.41369 4.23186,1.20009 0.62066,1.10908 4.08237,1.67853 11.80789,1.94243 1.77993,0.0608 2.10075,0.2713 1.24172,0.81476 -1.65238,1.04538 1.03881,1.51048 10.7061,1.85025 4.3713,0.15364 8.06144,0.6198 8.20032,1.03591 0.21882,0.65563 17.13708,0.89825 33.29908,0.47753 z m -33.06584,-1.58764 c -0.42976,-0.14667 -0.78138,-0.77667 -0.78138,-1.4 0,-0.68646 -0.81812,-1.13333 -2.07489,-1.13333 -1.4021,0 -2.21057,-0.51882 -2.49331,-1.6 -0.23012,-0.88 -0.91642,-1.6 -1.5251,-1.6 -0.60868,0 -1.06406,-0.27 -1.01196,-0.6 0.0521,-0.33 0.0521,-7.35 0,-15.6 -0.0806,-12.7579 -0.2741,-15 -1.29474,-15 -0.66,0 -1.2,-0.54 -1.2,-1.2 0,-0.66 -0.54,-1.2 -1.2,-1.2 -0.66,0 -1.2,-0.55935 -1.2,-1.243 0,-1.04909 1.11088,-1.20508 7.12141,-1 3.91677,0.13365 6.70677,0.513 6.2,0.84302 -0.59707,0.38881 -0.28781,0.77366 0.87859,1.0933 2.37871,0.65188 2.286,1.75421 -0.2,2.37816 -1.72805,0.43372 -2.00148,0.95248 -2.01092,3.81524 -0.0138,4.16901 -0.75742,7.02727 -1.68003,6.45707 -0.38997,-0.24102 -0.70905,0.30302 -0.70905,1.20899 0,0.90597 0.36,1.64722 0.8,1.64722 0.44,0 0.8,0.9 0.8,2 0,1.1 -0.36,2 -0.8,2 -0.45128,0 -0.8,2.26666 -0.8,5.2 0,3.73333 0.28205,5.14359 1,5 0.55,-0.11 1.11219,0.7 1.2493,1.8 0.17635,1.41481 1.13082,2.40963 3.26209,3.4 3.19817,1.48614 8.88861,1.90477 8.88861,0.65391 0,-0.41035 0.71788,-0.97394 1.59527,-1.25241 2.38577,-0.75721 4.00473,-2.68678 4.00473,-4.77305 0,-1.0215 0.54001,-2.06448 1.20001,-2.31776 0.99302,-0.38105 1.2,-2.53459 1.2,-12.48559 v -12.0251 h -2.80001 c -2.29738,0 -2.8,-0.29699 -2.8,-1.65446 0,-1.58401 0.31157,-1.63577 7.31777,-1.21557 4.02476,0.24139 7.48081,0.60194 7.68011,0.80123 0.87209,0.87209 -0.88935,2.0688 -3.04509,2.0688 -1.99078,0 -2.35278,0.31499 -2.35278,2.04721 0,1.12597 -0.31147,1.85472 -0.69215,1.61945 -0.97619,-0.60333 -1.57558,6.55499 -1.32084,15.77435 0.16097,5.82545 -0.0666,8.12426 -0.88517,8.94287 -0.60602,0.60601 -1.10806,1.39755 -1.11567,1.75897 -0.0202,0.95954 -3.66001,4.25715 -4.69894,4.25715 -0.48798,0 -0.88724,0.51258 -0.88724,1.13908 0,0.86912 -1.52124,1.20092 -6.41862,1.4 -3.53025,0.1435 -6.77025,0.14092 -7.2,-0.006 z m 84.81863,-16.53333 c 0,-0.66 0.54,-1.2 1.2,-1.2 0.88888,0 1.2,-0.93334 1.2,-3.6 0,-2.66667 -0.31112,-3.6 -1.2,-3.6 -0.79014,0 -1.2,-0.79049 -1.2,-2.31441 0,-1.31926 -0.51598,-2.51241 -1.2,-2.7749 -0.70149,-0.26918 -1.2,-1.46792 -1.2,-2.88559 0,-1.33381 -0.35315,-2.4251 -0.78476,-2.4251 -0.43162,0 -1.01064,-0.9 -1.28673,-2 -0.27608,-1.1 -0.83185,-2 -1.23504,-2 -0.40319,0 -1.07526,-0.9 -1.49347,-2 -0.41822,-1.1 -1.10428,-2 -1.52456,-2 -0.42029,0 -0.8792,-0.81 -1.0198,-1.8 -0.36504,-2.57024 -5.91036,-2.98097 -8.61196,-0.63788 -1.03868,0.90083 -2.19342,1.63788 -2.56609,1.63788 -0.37267,0 -0.67759,1.62 -0.67759,3.6 0,4.4991 -2.05093,5.07424 -2.85279,0.8 -0.30085,-1.60366 -0.99996,-2.8 -1.63625,-2.8 -1.58214,0 -1.37672,-1.54959 0.28904,-2.18035 0.77,-0.29157 1.87571,-1.00027 2.45714,-1.57489 0.58142,-0.57462 1.53291,-1.04476 2.11441,-1.04476 0.58149,0 1.26448,-0.54 1.51775,-1.2 0.25326,-0.66 1.01178,-1.2 1.68559,-1.2 0.67381,0 1.22511,-0.35575 1.22511,-0.79055 0,-0.4348 1.43345,-1.01977 3.18545,-1.29992 1.75201,-0.28016 3.01407,-0.78669 2.8046,-1.12563 -0.44539,-0.72065 1.5111,-1.5839 3.58979,-1.5839 0.79693,0 1.65619,-0.54 1.90946,-1.2 0.25326,-0.66 1.15326,-1.2 2,-1.2 0.84673,0 1.74673,-0.54 2,-1.2 0.25326,-0.66 1.34606,-1.2 2.42845,-1.2 1.08237,0 2.50796,-0.54 3.16796,-1.2 0.66,-0.66 2.12572,-1.2 3.25714,-1.2 1.75239,0 2.05715,0.35555 2.05715,2.4 0,1.6 0.4,2.4 1.2,2.4 0.74666,0 1.2,0.75555 1.2,2 0,1.1 -0.36,2 -0.8,2 -0.44,0 -0.8,-0.36 -0.8,-0.8 0,-0.44 -0.72,-0.8 -1.6,-0.8 -0.88889,0 -1.6,-0.53334 -1.6,-1.2 0,-0.88889 -0.93334,-1.2 -3.6,-1.2 -2.57718,0 -3.6,0.32288 -3.6,1.13643 0,0.62504 -1.08,1.37365 -2.4,1.66357 -1.9985,0.43894 -2.4,0.918 -2.4,2.86356 0,1.56052 0.40515,2.33644 1.22,2.33644 0.71555,0 1.41847,0.99235 1.7,2.4 0.264,1.32 0.795,2.4 1.18,2.4 0.385,0 0.7,1.08 0.7,2.4 0,1.6 0.4,2.4 1.2,2.4 0.75063,0 1.2,0.75834 1.2,2.0251 0,1.11382 0.50751,2.21986 1.1278,2.45789 0.62029,0.23803 1.35806,1.35021 1.63949,2.47153 0.28143,1.12132 1.03392,2.56098 1.6722,3.19926 0.63828,0.63827 1.16051,1.85479 1.16051,2.70336 0,0.84857 0.36,1.54286 0.8,1.54286 0.44,0 0.8,0.54 0.8,1.2 0,0.83809 0.84444,1.2 2.8,1.2 1.95555,0 2.8,0.3619 2.8,1.2 0,0.77235 -0.77495,1.2 -2.17453,1.2 -1.37475,0 -2.86218,0.80025 -4.04415,2.1758 -1.54872,1.80237 -1.99723,1.97399 -2.61321,1 -0.62322,-0.98544 -0.74559,-0.94914 -0.75587,0.2242 -0.009,1.06433 -0.68358,1.4 -2.81224,1.4 -1.95556,0 -2.8,-0.36191 -2.8,-1.2 z m 15.2,-7.6 c 0,-0.44 0.36,-0.8 0.8,-0.8 0.44,0 0.8,0.36 0.8,0.8 0,0.44 -0.36,0.8 -0.8,0.8 -0.44,0 -0.8,-0.36 -0.8,-0.8 z M 126.65333,275.283 c 0,-9.96034 -0.29405,-16.26548 -0.74555,-15.98643 -0.41006,0.25342 -0.86006,-0.53225 -1,-1.74595 -0.26686,-2.31436 -3.05445,-3.74232 -3.05445,-1.56465 0,0.64518 -0.54,1.38028 -1.2,1.63355 -0.66,0.25326 -1.2,1.37178 -1.2,2.48559 0,1.26676 -0.44937,2.02511 -1.2,2.02511 -0.66666,0 -1.2,0.71111 -1.2,1.6 0,0.88 -0.53314,1.6 -1.18476,1.6 -0.65161,0 -1.41064,0.9 -1.68673,2 -0.27608,1.1 -1.00293,2 -1.61524,2 -0.61229,0 -1.11327,0.72 -1.11327,1.6 0,0.88 -0.36,1.6 -0.8,1.6 -0.44,0 -0.8,1.08 -0.8,2.4 0,1.32 0.36,2.4 0.8,2.4 0.44,0 0.8,0.54 0.8,1.2 0,0.66 -0.37129,1.2 -0.8251,1.2 -0.45382,0 -1.03233,-0.54 -1.28559,-1.2 -0.25328,-0.66 -1.32197,-1.2 -2.3749,-1.2 -1.16836,0 -1.91441,-0.46764 -1.91441,-1.2 0,-0.66667 -0.71111,-1.2 -1.6,-1.2 -0.88888,0 -1.6,-0.53334 -1.6,-1.2 0,-0.80808 0.80832,-1.2 2.4749,-1.2 1.79742,0 2.58878,-0.43552 2.89095,-1.591 0.22883,-0.87506 0.73767,-1.39224 1.13075,-1.1493 0.39309,0.24294 0.96202,-0.21111 1.26429,-1.009 0.30227,-0.79789 1.01973,-1.92642 1.59435,-2.50785 0.57462,-0.58142 1.04476,-1.75142 1.04476,-2.6 0,-0.84857 0.54,-1.54285 1.2,-1.54285 0.66,0 1.2,-0.54 1.2,-1.2 0,-0.66 0.54,-1.2 1.2,-1.2 0.74667,0 1.2,-0.75556 1.2,-2 0,-1.24445 0.45334,-2 1.2,-2 0.66667,0 1.2,-0.71112 1.2,-1.6 0,-0.88889 0.53334,-1.6 1.2,-1.6 0.66,0 1.2,-0.54 1.2,-1.2 0,-0.66 0.54,-1.2 1.2,-1.2 0.88889,0 1.2,-0.93334 1.2,-3.6 0,-2.66667 -0.31111,-3.6 -1.2,-3.6 -0.66,0 -1.2,-0.54 -1.2,-1.2 0,-0.8 0.8,-1.2 2.4,-1.2 1.32,0 2.4,0.35588 2.4,0.79085 0,1.2173 2.63074,4.00915 3.7778,4.00915 0.79537,0 1.04323,3.86115 1.11694,17.4 0.0521,9.57 0.0409,17.70375 -0.025,18.075 -0.0658,0.37124 0.34151,0.46148 0.90526,0.20051 0.56376,-0.26097 1.655,-0.69671 2.425,-0.96831 0.77,-0.2716 1.4,-0.91182 1.4,-1.42272 0,-0.51089 0.72,-1.54538 1.6,-2.29886 0.88,-0.75348 1.6,-1.87497 1.6,-2.4922 0,-0.61723 0.54,-1.32946 1.2,-1.58273 0.66,-0.25326 1.2,-1.01177 1.2,-1.68559 0,-0.67381 0.43364,-1.1351 0.96364,-1.0251 0.93295,0.19363 1.11024,-0.22707 1.34861,-3.2 0.0867,-1.08163 0.26608,-1.15734 0.78867,-0.33292 0.96797,1.52706 1.69904,-0.68135 1.69904,-5.13252 0,-2.6085 0.3144,-3.53456 1.2,-3.53456 0.66,0 1.2,0.5114 1.2,1.13643 0,0.62504 1.08,1.37365 2.4,1.66357 1.32,0.28992 2.4,0.85852 2.4,1.26356 0,0.40504 0.5664,0.73644 1.25866,0.73644 0.76656,0 1.15483,0.54736 0.9931,1.4 -0.19366,1.02094 -1.18328,1.46656 -3.65504,1.64582 -3.2205,0.23357 -5.76074,2.32349 -4.43524,3.64899 0.27786,0.27785 0.0852,0.50519 -0.42814,0.50519 -0.51334,0 -0.93334,0.54 -0.93334,1.2 0,0.66 -0.54,1.2 -1.2,1.2 -0.66,0 -1.2,0.45999 -1.2,1.0222 0,0.56222 -0.72,1.63869 -1.6,2.39217 -0.88,0.75348 -1.6,2.09349 -1.6,2.97779 0,0.89585 -0.53138,1.60784 -1.2,1.60784 -0.66,0 -1.2,0.37519 -1.2,0.83376 0,0.45857 -0.36667,1.26857 -0.81483,1.8 -3.25277,3.85718 -3.98517,4.9394 -3.98517,5.88865 0,0.59267 -0.54,1.07759 -1.2,1.07759 -0.66,0 -1.2,0.54 -1.2,1.2 0,0.8 -0.8,1.2 -2.4,1.2 h -2.39996 z m 0,-21.15278 c 0,-0.44 -0.56125,-0.8 -1.24721,-0.8 -0.68597,0 -1.02472,0.36 -0.75279,0.8 0.27194,0.44 0.83319,0.8 1.24722,0.8 0.41403,0 0.75278,-0.36 0.75278,-0.8 z m 186.40001,31.76 c 0,-0.572 0.31953,-1.382 0.71009,-1.8 0.39054,-0.418 0.9548,-1.57 1.2539,-2.56 0.40254,-1.33237 0.21807,-1.8 -0.71008,-1.8 -0.89971,0 -1.25391,-0.79095 -1.25391,-2.8 0,-1.95556 -0.36191,-2.8 -1.2,-2.8 -0.7935,0 -1.2,-0.79365 -1.2,-2.34286 0,-1.28858 -0.54,-2.88286 -1.2,-3.54286 -0.66,-0.66 -1.2,-2.30572 -1.2,-3.65714 0,-1.65079 -0.3938,-2.45714 -1.2,-2.45714 -0.8381,0 -1.2,-0.84445 -1.2,-2.8 0,-1.95556 -0.36191,-2.8 -1.2,-2.8 -0.84405,0 -1.2,-0.85277 -1.2,-2.8749 0,-2.22711 -0.37019,-2.9717 -1.64289,-3.30452 -1.28911,-0.33711 -1.59059,-0.96702 -1.4,-2.9251 0.20883,-2.14563 0.59274,-2.52954 2.73837,-2.73837 1.95809,-0.19059 2.58799,0.11089 2.9251,1.4 0.31239,1.19457 1.08163,1.64289 2.81893,1.64289 1.3357,0 2.58321,0.5053 2.82902,1.14589 0.24185,0.63024 1.63036,1.26024 3.0856,1.4 1.59169,0.15287 2.56618,0.65253 2.44587,1.25411 -0.12856,0.64281 0.76955,1 2.51441,1 1.67481,0 2.89076,0.45959 3.17489,1.2 0.25327,0.66 1.3975,1.2 2.54273,1.2 1.14524,0 2.62226,0.54 3.28226,1.2 0.66,0.66 2.43428,1.2 3.94285,1.2 1.90476,0 2.74286,0.36666 2.74286,1.2 0,0.8 0.8,1.2 2.4,1.2 1.6,0 2.4,-0.4 2.4,-1.2 0,-0.66 0.54,-1.2 1.2,-1.2 0.66,0 1.2,0.54 1.2,1.2 0,0.66 -0.50098,1.2 -1.11327,1.2 -0.61231,0 -1.32368,0.83828 -1.58083,1.86284 -0.25714,1.02457 -1.37617,2.27685 -2.48672,2.78285 -1.11055,0.506 -2.01918,1.46772 -2.01918,2.13715 0,0.66944 -0.50149,1.21716 -1.11441,1.21716 -0.61293,0 -1.32162,0.54 -1.5749,1.2 -0.66912,1.7437 -2.11069,1.4705 -2.11069,-0.4 0,-0.88 0.36,-1.6 0.8,-1.6 0.44,0 0.8,-0.54 0.8,-1.2 0,-0.66 -0.36,-1.2 -0.8,-1.2 -0.44,0 -0.8,-0.54 -0.8,-1.2 0,-0.66 -0.69429,-1.2 -1.54286,-1.2 -0.84857,0 -2.08285,-0.54 -2.74285,-1.2 -0.66,-0.66 -2.13702,-1.2 -3.28226,-1.2 -1.14523,0 -2.28946,0.54 -2.54273,1.2 -0.25327,0.66 -0.96197,1.2 -1.57489,1.2 -0.61292,0 -1.11441,0.36 -1.11441,0.8 0,0.44 -0.72,1.52 -1.6,2.4 -0.88,0.88 -1.96,1.6 -2.4,1.6 -0.44,0 -0.8,1.26 -0.8,2.8 0,1.95555 0.3619,2.8 1.2,2.8 0.8,0 1.2,0.8 1.2,2.4 0,1.6 0.4,2.4 1.2,2.4 0.66,0 1.21145,0.63 1.22544,1.4 0.0242,1.33333 0.0761,1.33333 1.0882,0 1.30093,-1.71376 3.68636,-1.84319 3.68636,-0.2 0,0.66 -0.54,1.2 -1.2,1.2 -0.66,0 -1.2,0.36 -1.2,0.8 0,0.44 -0.54,0.8 -1.2,0.8 -0.66667,0 -1.2,0.71111 -1.2,1.6 0,0.88888 -0.53334,1.6 -1.2,1.6 -0.66,0 -1.2,0.54 -1.2,1.2 0,0.66 -0.54,1.2 -1.2,1.2 -0.66,0 -1.2,-0.468 -1.2,-1.04 z m 1.2,-22.16 c -0.27194,-0.44 -0.1389,-0.8 0.29564,-0.8 1.3294,0 3.30436,-2.42489 3.30436,-4.05715 0,-0.84857 -0.54,-1.54285 -1.2,-1.54285 -0.66,0 -1.2,-0.5114 -1.2,-1.13644 0,-0.62504 -1.07587,-1.37274 -2.39083,-1.66155 -1.31496,-0.28881 -2.5962,-0.85741 -2.84721,-1.26357 -0.62519,-1.01158 -4.36196,-0.93734 -4.36196,0.0867 0,0.45382 0.54,1.03233 1.2,1.28559 0.78148,0.29988 1.2,1.54351 1.2,3.56575 0,3.64833 1.95664,6.32356 4.62501,6.32356 1.04256,0 1.65072,-0.35385 1.37499,-0.8 z m -100.5494,10.44992 c -1.18216,-0.37647 -2.35216,-0.48171 -2.6,-0.23387 -0.24783,0.24783 -0.45061,0.0306 -0.45061,-0.48272 0,-0.51333 -0.99,-0.93825 -2.2,-0.94425 -3.18324,-0.0158 -5.85175,-0.85814 -5.34029,-1.68568 0.24293,-0.39309 -0.21111,-0.9559 -1.009,-1.2507 -0.79789,-0.2948 -1.69606,-0.90362 -1.99594,-1.35295 -0.29988,-0.44932 -2.99988,-0.97036 -6,-1.15787 -3.00012,-0.1875 -5.72477,-0.74613 -6.05477,-1.2414 -0.43052,-0.64613 -0.79452,-0.59908 -1.28867,0.1666 -0.55529,0.86042 -0.78283,0.82168 -1.17489,-0.2 -0.3428,-0.89332 -1.53588,-1.26708 -4.04466,-1.26708 -1.95714,0 -3.68618,-0.38323 -3.84231,-0.85161 -0.15613,-0.46839 -1.80613,-1.05579 -3.66667,-1.30534 -2.10786,-0.28272 -3.3828,-0.86629 -3.3828,-1.54839 0,-0.68296 -0.90264,-1.09466 -2.4,-1.09466 -1.6,0 -2.4,-0.4 -2.4,-1.2 0,-0.8 -0.8,-1.2 -2.4,-1.2 -1.6,0 -2.4,-0.4 -2.4,-1.2 0,-0.8 -0.8,-1.2 -2.4,-1.2 -1.6,0 -2.4,-0.4 -2.4,-1.2 0,-0.8 -0.8,-1.2 -2.4,-1.2 -1.6,0 -2.4,-0.4 -2.4,-1.2 0,-0.66 -0.54,-1.2 -1.2,-1.2 -0.66,0 -1.2,-0.54 -1.2,-1.2 0,-0.66 -0.54,-1.2 -1.2,-1.2 -0.66,0 -1.2,-0.54 -1.2,-1.2 0,-0.8 -0.8,-1.2 -2.4,-1.2 -1.6,0 -2.4,-0.4 -2.4,-1.2 0,-0.66 -0.37213,-1.2 -0.82696,-1.2 -0.45483,0 -1.88269,-1.08 -3.17304,-2.4 -1.29034,-1.32 -2.7182,-2.4 -3.17304,-2.4 -0.45482,0 -0.82696,-0.54 -0.82696,-1.2 0,-0.66 -0.54,-1.2 -1.2,-1.2 -0.66,0 -1.2,-0.54 -1.2,-1.2 0,-0.66 -0.54,-1.2 -1.2,-1.2 -0.66,0 -1.2,-0.54 -1.2,-1.2 0,-0.66 -0.54,-1.2 -1.2,-1.2 -0.66,0 -1.2,-0.50149 -1.2,-1.11441 0,-0.61293 -0.54,-1.32163 -1.2,-1.5749 -0.66,-0.25326 -1.2,-1.01177 -1.2,-1.68559 0,-0.67381 -0.54,-1.2251 -1.2,-1.2251 -0.73236,0 -1.2,-0.74605 -1.2,-1.91441 0,-1.05293 -0.54,-2.12163 -1.2,-2.3749 -0.66,-0.25326 -1.2,-1.01177 -1.2,-1.68559 0,-0.67381 -0.54,-1.2251 -1.2,-1.2251 -0.8,0 -1.2,-0.8 -1.2,-2.4 0,-1.6 -0.4,-2.4 -1.2,-2.4 -0.8,0 -1.2,-0.8 -1.2,-2.4 0,-1.51691 -0.40964,-2.4 -1.11327,-2.4 -0.6123,0 -1.36085,-0.9864 -1.66343,-2.19199 -0.30259,-1.20559 -0.86227,-2.38489 -1.24374,-2.62065 -0.38146,-0.23576 -0.78461,-1.9716 -0.89589,-3.85742 -0.11127,-1.88582 -0.62177,-3.67653 -1.13444,-3.97935 -0.51267,-0.30283 -1.11181,-2.47897 -1.33144,-4.83587 -0.21962,-2.35689 -0.815,-4.54219 -1.32308,-4.8562 -1.34018,-0.82827 -1.31451,-32.90465 0.027,-33.73375 0.53184,-0.3287 1.1253,-2.78624 1.31879,-5.46121 0.19349,-2.67496 0.66853,-4.86357 1.05565,-4.86357 0.38712,0 0.70384,-1.44 0.70384,-3.2 0,-2.19713 0.34818,-3.2 1.11097,-3.2 0.63629,0 1.3354,-1.19634 1.63625,-2.8 0.2889,-1.54 0.84037,-2.8 1.22547,-2.8 0.38511,0 0.93079,-1.04992 1.21263,-2.33316 0.28185,-1.28324 1.03046,-2.53195 1.66357,-2.7749 0.63308,-0.24294 1.15108,-1.35302 1.15108,-2.46683 0,-1.11381 0.36,-2.02511 0.8,-2.02511 0.44,0 0.8,-0.49801 0.8,-1.10669 0,-0.60868 0.72,-1.29498 1.6,-1.52511 1.08119,-0.28273 1.6,-1.09121 1.6,-2.4933 0,-1.31102 0.44179,-2.0749 1.2,-2.0749 0.66,0 1.2,-0.54 1.2,-1.2 0,-0.66 0.36,-1.2 0.8,-1.2 0.44,0 0.8,-0.5737 0.8,-1.27489 0,-0.7012 0.72,-1.46318 1.6,-1.69331 0.88,-0.23013 1.6,-0.73642 1.6,-1.1251 0,-0.38868 0.54,-0.7067 1.2,-0.7067 0.66,0 1.2,-0.54 1.2,-1.2 0,-0.66 0.54,-1.2 1.2,-1.2 0.66667,0 1.2,-0.71111 1.2,-1.6 0,-0.88889 0.53334,-1.6 1.2,-1.6 0.66,0 1.2,-0.539998 1.2,-1.199998 0,-0.66 0.54,-1.2 1.2,-1.2 0.66,0 1.2,-0.36 1.2,-0.8 0,-0.44 0.46,-0.8 1.02221,-0.8 0.56222,0 1.63869,-0.72 2.39217,-1.6 0.75348,-0.88 1.91349,-1.6 2.57779,-1.6 0.66431,0 1.20783,-0.54 1.20783,-1.2 0,-0.66 0.5513,-1.2 1.22511,-1.2 0.67381,0 1.43233,-0.54 1.68559,-1.2 0.25327,-0.66 0.80769,-1.2 1.23204,-1.2 0.42435,0 1.31155,-0.54 1.97155,-1.2 0.66,-0.66 1.89428,-1.2 2.74286,-1.2 0.84857,0 1.54285,-0.36772 1.54285,-0.81715 0,-0.44943 0.99,-1.25523 2.2,-1.79067 1.21,-0.53543 2.67572,-1.42772 3.25715,-1.98285 0.58142,-0.55513 2.38142,-1.03463 4,-1.06556 2.06323,-0.0394 2.50489,-0.22873 1.47764,-0.63334 -1.11847,-0.44054 -0.43922,-0.90053 2.87031,-1.94377 2.38454,-0.75166 5.17554,-1.36666 6.20222,-1.36666 1.02668,0 2.51044,-0.58257 3.29723,-1.29461 0.78679,-0.71203 3.05795,-1.47804 5.04701,-1.70224 1.98908,-0.2242 3.44773,-0.68069 3.24147,-1.01444 -0.63258,-1.02353 2.87902,-1.56635 10.20697,-1.57778 5.68404,-0.009 7,-0.23652 7,-1.21093 0,-1.00741 1.73334,-1.2 10.80001,-1.2 8.74682,0 10.8,0.21388 10.8,1.12504 0,0.87373 1.79374,1.18645 8.03021,1.4 5.26191,0.18017 8.24111,0.61675 8.64194,1.26641 0.33644,0.5453 2.57284,1.20665 4.96977,1.46967 2.39695,0.26302 4.47808,0.80687 4.62474,1.20855 0.14667,0.40168 1.84537,0.73033 3.7749,0.73033 2.78974,0 3.41392,0.24576 3.04774,1.2 -0.34862,0.90849 0.14523,1.2 2.03294,1.2 1.50343,0 3.03735,0.63527 3.86338,1.6 0.75348,0.88 2.18995,1.6 3.19217,1.6 1.08641,0 1.82221,0.48456 1.82221,1.2 0,0.8381 0.84444,1.2 2.8,1.2 1.54,0 2.8,0.36 2.8,0.8 0,0.44 0.54352,0.8 1.20783,0.8 0.6643,0 1.82431,0.72 2.57779,1.6 0.75348,0.88 1.82995,1.6 2.39217,1.6 0.56221,0 1.02221,0.54 1.02221,1.2 0,0.66 0.50148,1.2 1.1144,1.2 0.61293,0 1.32163,0.54 1.5749,1.2 0.25326,0.66 1.37178,1.2 2.48559,1.2 1.26676,0 2.02511,0.44937 2.02511,1.2 0,0.66 0.54,1.2 1.2,1.2 0.66,0 1.2,0.54 1.2,1.2 0,0.66 0.54,1.2 1.2,1.2 0.66,0 1.2,0.54 1.2,1.2 0,0.66 0.54,1.199998 1.2,1.199998 0.66,0 1.2,0.54 1.2,1.2 0,0.66 0.54,1.2 1.2,1.2 0.66,0 1.2,0.49802 1.2,1.1067 0,0.60868 0.75622,1.30445 1.68049,1.54615 0.92535,0.24198 1.44336,0.82314 1.15279,1.2933 -0.29024,0.46962 0.0335,0.85385 0.7195,0.85385 0.71388,0 1.24722,0.68419 1.24722,1.6 0,0.88 0.37719,1.6 0.8382,1.6 1.34809,0 4.7618,4.09835 4.7618,5.71682 0,0.81575 0.38571,1.48318 0.85714,1.48318 1.45709,0 3.14105,2.19095 3.65357,4.75357 0.26911,1.34554 0.98429,2.44643 1.58929,2.44643 0.68889,0 1.1,0.89697 1.1,2.4 0,1.49334 0.37777,2.32445 1,2.2 0.57928,-0.11585 1.11334,0.80972 1.26941,2.2 0.14817,1.32 0.77817,2.68789 1.4,3.03976 0.67535,0.38215 1.13059,1.91224 1.13059,3.8 0,2.13065 0.35434,3.16024 1.08762,3.16024 0.8014,0 1.1254,1.49698 1.23118,5.68832 0.0977,3.87283 0.53265,6.07742 1.36268,6.90745 1.0198,1.01979 1.17821,3.51267 0.96882,15.24614 -0.18429,10.32794 -0.51401,14.11461 -1.2503,14.35921 -0.62719,0.20836 -1.00184,1.87318 -1.00493,4.46555 -0.002,2.27333 -0.54271,5.16449 -1.2,6.42478 -0.65729,1.2603 -1.19507,3.5103 -1.19507,5 0,1.87427 -0.36963,2.70855 -1.2,2.70855 -0.73726,0 -1.2,0.74921 -1.2,1.94286 0,1.06858 -0.45,2.435 -1,3.03651 -1.66333,1.81908 -3.8,6.25294 -3.8,7.88547 0,0.84434 -0.54,1.53517 -1.2,1.53517 -0.66667,0 -1.2,0.71111 -1.2,1.6 0,0.88 -0.50098,1.6 -1.11327,1.6 -0.61231,0 -1.34687,0.93068 -1.63236,2.06818 -0.28549,1.1375 -1.40452,2.88878 -2.48672,3.89174 -1.08221,1.00295 -1.96765,2.19028 -1.96765,2.63851 0,0.44822 -0.75623,1.01271 -1.6805,1.25441 -0.99297,0.25968 -1.45097,0.81082 -1.1195,1.34716 0.33147,0.53633 -0.12654,1.08748 -1.11951,1.34715 -0.92427,0.2417 -1.68049,0.78318 -1.68049,1.20329 0,0.98817 -2.06139,3.04956 -3.04956,3.04956 -0.42011,0 -0.95212,0.72 -1.18224,1.6 -0.23013,0.88 -0.99212,1.6 -1.69331,1.6 -0.70119,0 -1.27489,0.54 -1.27489,1.2 0,0.66 -0.54,1.2 -1.2,1.2 -0.66,0 -1.2,0.3314 -1.2,0.73643 0,0.40504 -1.08,0.97365 -2.4,1.26357 -1.32,0.28992 -2.4,1.03852 -2.4,1.66356 0,0.62504 -0.54,1.13644 -1.2,1.13644 -0.66,0 -1.2,0.54 -1.2,1.2 0,0.66 -0.54,1.2 -1.2,1.2 -0.66,0 -1.2,0.54 -1.2,1.2 0,0.8 -0.8,1.2 -2.4,1.2 -1.32,0 -2.4,0.36 -2.4,0.8 0,0.44 -0.72352,0.8 -1.60784,0.8 -0.8843,0 -2.22431,0.72 -2.97779,1.6 -0.75965,0.8872 -2.35995,1.6 -3.59217,1.6 -1.44196,0 -2.2222,0.42133 -2.2222,1.2 0,0.75063 -0.75835,1.2 -2.02511,1.2 -1.11381,0 -2.23233,0.54 -2.48559,1.2 -0.25327,0.66 -1.27801,1.2 -2.27719,1.2 -0.99919,0 -3.10911,0.54 -4.68872,1.2 -1.5796,0.66 -4.30568,1.2 -6.05795,1.2 -1.82653,0 -3.45892,0.46111 -3.82569,1.08067 -0.38587,0.65181 -2.84612,1.28074 -6.19945,1.58481 -3.73304,0.33851 -5.78314,0.9034 -6.23975,1.71933 -0.37403,0.66835 -1.04788,1.21519 -1.49745,1.21519 -0.44956,0 -1.35739,0.54 -2.01739,1.2 -0.66,0.66 -2.40428,1.2 -3.87619,1.2 -1.47191,0 -2.79902,0.36848 -2.94915,0.81886 -0.37872,1.13616 -5.41183,1.65838 -8.00977,0.83106 z m -3.85061,-104.04993 c 0,-49.29524 -0.30428,-87.199998 -0.7,-87.199998 -2.88593,0 -5.73846,1.14587 -5.35301,2.15032 0.24029,0.62618 0.081,0.91419 -0.35615,0.64402 -0.43496,-0.26882 -0.79084,0.0725 -0.79084,0.75845 0,0.68596 -0.54,1.24721 -1.2,1.24721 -0.66666,0 -1.2,0.71111 -1.2,1.6 0,1.06667 -0.53333,1.6 -1.6,1.6 -1.24444,0 -1.6,0.53334 -1.6,2.4 0,1.32 -0.36,2.4 -0.8,2.4 -0.44,0 -0.8,0.9113 -0.8,2.02511 0,1.11381 -0.4996,2.21682 -1.11023,2.451138 -0.61062,0.23432 -1.32162,1.48302 -1.58,2.7749 -0.27325,1.36628 -0.98011,2.34885 -1.68977,2.34885 -0.93066,0 -1.22,0.94863 -1.22,4 0,2.2 -0.33409,4 -0.74243,4 -0.40834,0 -0.98931,1.97593 -1.29105,4.39095 -0.30173,2.41501 -0.83123,4.21627 -1.17665,4.00279 -0.34543,-0.21348 -0.88099,2.13059 -1.19015,5.20906 -0.40104,3.99348 -0.88267,5.5972 -1.68091,5.5972 -0.88405,0 -1.11881,1.68386 -1.11881,8.02511 0,5.68213 -0.29196,8.13713 -1,8.40878 -1.3297,0.51017 -1.19732,44.56701 0.13526,45.0112 0.54551,0.18183 0.86474,3.34991 0.86474,8.58183 0,6.89074 0.22431,8.41911 1.32609,9.03569 0.92021,0.51498 1.43987,2.17992 1.69786,5.43976 0.20448,2.5837 0.67195,5.0755 1.03883,5.53732 0.36687,0.46184 0.9225,2.43721 1.23472,4.38973 0.31222,1.95252 1.04801,4.03038 1.63509,4.61746 0.58708,0.58708 1.06741,2.26318 1.06741,3.72468 0,1.62402 0.46661,2.83632 1.2,3.11775 0.66,0.25326 1.2,1.37178 1.2,2.48559 0,1.26676 0.44937,2.02511 1.2,2.02511 0.79014,0 1.2,0.79048 1.2,2.3144 0,1.31927 0.51598,2.51241 1.2,2.7749 0.66,0.25326 1.2,1.37178 1.2,2.48559 0,1.26676 0.44937,2.02511 1.2,2.02511 0.66,0 1.2,0.54 1.2,1.2 0,0.66 0.54,1.2 1.2,1.2 0.66,0 1.2,0.54 1.2,1.2 0,0.88888 0.93334,1.2 3.6,1.2 h 3.6 z m 20.00001,86.00001 c 0,-0.66 0.54,-1.2 1.2,-1.2 0.66,0 1.2,-0.54 1.2,-1.2 0,-0.66 0.54,-1.2 1.2,-1.2 0.66,0 1.2,-0.69429 1.2,-1.54286 0,-0.84858 0.54,-2.08286 1.2,-2.74286 0.66,-0.66 1.2,-2.12572 1.2,-3.25714 0,-1.29524 0.44444,-2.05714 1.2,-2.05714 0.83809,0 1.2,-0.84445 1.2,-2.8 0,-1.95556 0.3619,-2.8 1.2,-2.8 0.86666,0 1.2,-0.88889 1.2,-3.2 0,-2.19121 0.34888,-3.2 1.10669,-3.2 1.21289,0 2.06537,-2.3744 2.08239,-5.8 0.006,-1.2142 0.459,-2.20549 1.01092,-2.21225 0.73581,-0.009 0.71325,-0.19395 -0.0854,-0.7 -0.75665,-0.47944 -0.81723,-0.85351 -0.2,-1.23497 0.48697,-0.30097 0.88541,-2.68597 0.88541,-5.3 0,-3.4748 0.29266,-4.75278 1.08841,-4.75278 0.83238,0 1.18566,-2.20352 1.50179,-9.36727 0.2592,-5.87378 0.74836,-9.47892 1.31159,-9.66666 0.63273,-0.21092 0.89821,-6.28383 0.89821,-20.54715 0,-17.26001 -0.17708,-20.31569 -1.2,-20.70823 -0.9666,-0.37092 -1.2,-2.18183 -1.2,-9.3107 0,-7.12886 -0.2334,-8.93977 -1.2,-9.31069 -0.87882,-0.33724 -1.2,-1.72231 -1.2,-5.1749 0,-3.46871 -0.29091,-4.71441 -1.10094,-4.71441 -0.76158,0 -1.21749,-1.40549 -1.47906,-4.55969 -0.20797,-2.50782 -0.79255,-4.69782 -1.29907,-4.86666 -0.50924,-0.16975 -0.92093,-1.88654 -0.92093,-3.84031 0,-2.60741 -0.31447,-3.53334 -1.2,-3.53334 -0.8,0 -1.2,-0.8 -1.2,-2.4 0,-1.6 -0.4,-2.4 -1.2,-2.4 -0.8,0 -1.2,-0.799998 -1.2,-2.399998 0,-1.54033 -0.40707,-2.4 -1.13644,-2.4 -0.62504,0 -1.37364,-1.08 -1.66356,-2.4 -0.28992,-1.32 -0.85853,-2.4 -1.26357,-2.4 -0.40503,0 -0.73643,-0.54 -0.73643,-1.2 0,-0.66 -0.5114,-1.2 -1.13644,-1.2 -0.62504,0 -1.38417,-1.12793 -1.68696,-2.50651 -0.35647,-1.62298 -0.76661,-2.15687 -1.16356,-1.51459 -0.43587,0.70525 -0.7712,0.73603 -1.16026,0.10651 -0.30097,-0.48698 -1.06597,-0.88541 -1.7,-0.88541 -0.99658,0 -1.15278,11.68881 -1.15278,86.266668 0,47.44667 0.24,86.50667 0.53333,86.8 1.08119,1.0812 5.06667,0.5568 5.06667,-0.66666 z m -44.80001,-8.4 c 0,-1.6 -0.4,-2.4 -1.2,-2.4 -0.8062,0 -1.2,-0.80636 -1.2,-2.45715 0,-1.35142 -0.54,-2.99714 -1.2,-3.65714 -0.66,-0.66 -1.2,-2.43428 -1.2,-3.94286 0,-1.90476 -0.36666,-2.74285 -1.2,-2.74285 -0.8624,0 -1.2,-0.88148 -1.2,-3.13334 0,-1.72333 -0.3587,-3.25333 -0.79711,-3.4 -0.43841,-0.14666 -1.13503,-2.95887 -1.54804,-6.24934 -0.413,-3.29048 -1.1343,-6.11048 -1.60288,-6.26667 -0.52281,-0.17427 -0.85197,-3.21661 -0.85197,-7.87446 0,-5.74534 -0.29742,-7.88791 -1.22354,-8.81403 -1.05508,-1.05508 -1.19276,-4.61017 -1,-25.82093 0.1543,-16.97881 0.5072,-24.94488 1.13934,-25.71931 0.5037,-0.61706 1.04917,-4.15375 1.21218,-7.85932 0.19387,-4.40742 0.63798,-6.85126 1.28419,-7.06666 0.57047,-0.19016 0.99245,-1.73761 0.99875,-3.66261 0.0138,-4.18709 0.75587,-7.0483 1.68004,-6.47713 0.38997,0.24102 0.71126,-1.11302 0.71397,-3.00899 0.002,-1.89597 0.54271,-4.47837 1.2,-5.73867 0.65729,-1.26029 1.19507,-3.51029 1.19507,-5 0,-1.87427 0.36963,-2.70855 1.2,-2.70855 0.73726,0 1.2,-0.74921 1.2,-1.94285 0,-1.06858 0.52223,-2.465088 1.16051,-3.103358 0.63828,-0.63828 1.3973,-2.104 1.68673,-3.25715 0.28942,-1.15315 0.84719,-2.09664 1.23949,-2.09664 0.3923,0 0.71327,-0.67008 0.71327,-1.48906 0,-1.15695 -0.44606,-1.40379 -2,-1.10674 -1.1,0.21028 -2,0.88035 -2,1.48907 0,0.6087 -0.73129,1.10673 -1.6251,1.10673 -0.89382,0 -1.81986,0.50751 -2.05789,1.1278 -0.23803,0.6203 -1.30673,1.34715 -2.37489,1.61524 -1.06816,0.2681 -1.94212,0.84059 -1.94212,1.2722 0,0.43162 -0.54,0.78476 -1.2,0.78476 -0.66,0 -1.2,0.52211 -1.2,1.16025 0,0.63814 -0.63,1.527188 -1.4,1.975668 -1.10984,0.64643 -1.1513,0.82711 -0.2,0.87179 0.67473,0.0317 0.237,0.57879 -1,1.24987 -1.25047,0.67839 -2.2,1.87306 -2.2,2.76797 0,0.86618 -0.53982,1.57445 -1.2,1.57445 -0.66,0 -1.2,0.52734 -1.2,1.17186 0,0.64452 -0.72,1.55718 -1.6,2.02814 -0.88,0.47096 -1.6,1.56363 -1.6,2.42815 0,0.86452 -0.36,1.57185 -0.8,1.57185 -0.44,0 -0.8,0.50149 -0.8,1.11441 0,0.61293 -0.54,1.32162 -1.2,1.5749 -0.70148,0.26918 -1.2,1.46792 -1.2,2.88559 0,1.52968 -0.408,2.4251 -1.10503,2.4251 -0.64203,0 -1.48483,1.50836 -2.01151,3.6 -0.49858,1.98 -1.26131,3.6 -1.69498,3.6 -0.43366,0 -0.78848,0.9 -0.78848,2 0,1.1 -0.36,2 -0.8,2 -0.44,0 -0.8,1.77429 -0.8,3.94286 0,2.4771 -0.45625,4.39911 -1.22731,5.17018 -0.72683,0.72682 -1.43373,3.43772 -1.73349,6.64776 -0.27839,2.98125 -0.9861,5.90039 -1.57268,6.48697 -1.56601,1.56602 -1.549,28.15223 0.018,28.15223 0.77588,0 1.21356,1.70612 1.53793,5.99508 0.29431,3.89149 0.89625,6.43792 1.71547,7.25715 0.76216,0.76215 1.26207,2.63899 1.26207,4.73825 0,1.91191 0.38322,3.60393 0.85161,3.76006 0.46838,0.15613 1.05578,1.80613 1.30533,3.66667 0.24955,1.86054 0.7273,3.3828 1.06167,3.3828 0.33436,0 0.85551,0.98639 1.15809,2.19198 0.30259,1.20559 0.97161,2.45246 1.48672,2.77082 0.90775,0.56102 1.02377,0.88351 1.23658,3.4372 0.055,0.66 0.64,1.2 1.3,1.2 0.66666,0 1.2,0.71111 1.2,1.6 0,0.88888 0.53333,1.6 1.2,1.6 0.75063,0 1.2,0.75834 1.2,2.0251 0,1.11382 0.54,2.23233 1.2,2.48559 0.66,0.25327 1.2,0.96197 1.2,1.5749 0,0.61292 0.50097,1.11441 1.11327,1.11441 0.6123,0 1.35704,0.97122 1.65497,2.15828 0.37899,1.51003 0.73369,1.84762 1.18092,1.12397 0.45548,-0.73697 0.77842,-0.4797 1.12345,0.89499 0.26632,1.06111 1.39393,2.41615 2.5058,3.0112 1.27452,0.68211 2.02159,1.77106 2.02159,2.94674 0,1.59467 0.40198,1.86482 2.77489,1.86482 2.1379,0 2.66919,0.27547 2.31441,1.2 -0.31953,0.83268 0.0554,1.2 1.22511,1.2 0.96496,0 1.68559,0.51302 1.68559,1.2 0,0.66 0.36,1.2 0.8,1.2 0.44,0 0.8,-1.08 0.8,-2.4 z m 64.00001,0.8 c 0,-1.06667 0.53333,-1.6 1.6,-1.6 0.88,0 1.6,-0.36 1.6,-0.8 0,-0.44 0.9,-0.8 2,-0.8 1.1,0 2,-0.39926 2,-0.88724 0,-1.18323 3.36004,-4.68149 4.51327,-4.69894 0.5023,-0.008 1.11837,-0.83098 1.36904,-1.82974 0.25067,-0.99876 1.11788,-2.52876 1.92712,-3.4 0.80924,-0.87124 1.71188,-2.21408 2.00585,-2.98408 0.29397,-0.77 1.0858,-1.4 1.75961,-1.4 0.68137,0 1.22511,-0.69248 1.22511,-1.56025 0,-0.85814 0.46942,-1.84814 1.04316,-2.2 1.10424,-0.67721 3.75684,-5.87437 3.75684,-7.36066 0,-0.4835 0.45,-0.78909 1,-0.67909 0.59864,0.11972 1.10061,-0.84353 1.25068,-2.4 0.15528,-1.61049 0.6881,-2.6 1.4,-2.6 0.74368,0 1.14932,-0.84704 1.14932,-2.4 0,-1.32 0.3314,-2.4 0.73643,-2.4 0.87492,0 1.55586,-2.99366 1.84995,-8.13296 0.11749,-2.05312 0.56524,-3.67312 0.99499,-3.6 0.42976,0.0731 1.00838,-2.15404 1.28582,-4.94926 0.27743,-2.79522 0.94599,-5.35511 1.48569,-5.68867 0.70779,-0.43743 0.57239,-0.76396 -0.4858,-1.17159 -1.38538,-0.53365 -1.38912,-0.60889 -0.067,-1.35108 1.23585,-0.6938 1.4,-2.18823 1.4,-12.7462 -8e-5,-9.50265 -0.22183,-11.96025 -1.07922,-11.96025 -0.81202,0 -1.11098,-1.70524 -1.20775,-6.88893 -0.12895,-6.90688 -0.49155,-8.66603 -1.63998,-7.95627 -0.33897,0.2095 -0.66589,-0.95463 -0.72651,-2.58695 -0.14808,-3.98764 -0.93164,-7.36785 -1.70794,-7.36785 -0.3488,0 -0.86446,-1.44 -1.14589,-3.2 -0.28143,-1.76 -0.86745,-3.2 -1.30225,-3.2 -0.4348,0 -0.79054,-1.08 -0.79054,-2.4 0,-1.51452 -0.4099,-2.4 -1.11097,-2.4 -0.63629,0 -1.3354,-1.19634 -1.63625,-2.8 -0.2889,-1.54 -0.83686,-2.8 -1.21767,-2.8 -0.38081,0 -1.47661,-1.62 -2.43511,-3.6 -0.95851,-1.98 -2.25062,-3.6 -2.87137,-3.6 -0.62075,0 -1.12863,-0.54 -1.12863,-1.2 0,-0.66 -0.36,-1.2 -0.8,-1.2 -0.44,0 -0.8,-0.54 -0.8,-1.2 0,-0.66 -0.54,-1.2 -1.2,-1.2 -0.66,0 -1.2,-0.54352 -1.2,-1.20783 0,-0.6643 -0.72,-1.82431 -1.6,-2.57779 -0.88,-0.75348 -1.6,-1.829948 -1.6,-2.392168 0,-0.56222 -0.54,-1.02221 -1.2,-1.02221 -0.66,0 -1.2,-0.54 -1.2,-1.2 0,-0.66 -0.67592,-1.2 -1.50205,-1.2 -0.82612,0 -1.9502,-0.54 -2.49795,-1.2 -0.54776,-0.66 -1.49184,-1.2 -2.09796,-1.2 -0.60612,0 -1.10204,-0.54 -1.10204,-1.2 0,-0.66666 -0.71112,-1.2 -1.6,-1.2 -0.88,0 -1.87,-0.019 -2.2,-0.0422 -0.33,-0.0232 -0.7164,0.51676 -0.85866,1.2 -0.14706,0.70623 0.28444,1.24226 1,1.24226 0.86518,0 1.25866,0.75029 1.25866,2.4 0,1.6 0.4,2.4 1.2,2.4 0.79238,0 1.2,0.79259 1.2,2.333328 0,1.28333 0.3954,2.46514 0.87868,2.62623 0.48328,0.16109 1.07009,1.99109 1.30404,4.06666 0.27671,2.45491 0.80837,3.77378 1.52132,3.77378 0.7667,0 1.09596,1.08907 1.09596,3.6251 0,2.48433 0.37762,3.77003 1.2,4.08559 0.87651,0.33636 1.2,1.71596 1.2,5.11776 0,2.81643 0.42198,5.07925 1.0676,5.72487 0.67531,0.6753 1.25401,4.12734 1.57489,9.39442 0.27902,4.57974 0.8709,8.55152 1.31531,8.82618 0.50596,0.3127 0.88915,9.24201 1.0251,23.88734 0.18634,20.07447 0.0471,23.49781 -0.9829,24.16335 -0.9984,0.64512 -1.01679,0.89353 -0.10948,1.47855 0.92069,0.59366 0.92069,0.75963 0,1.06579 -0.80595,0.268 -1.16172,2.58967 -1.36334,8.89684 -0.2135,6.67849 -0.51792,8.5342 -1.4,8.5342 -0.81929,0 -1.12718,1.09263 -1.12718,4 0,2.66013 -0.33497,4.0041 -1,4.01224 -0.66667,0.008 -0.6,0.27076 0.2,0.78776 1.02552,0.66274 0.99644,0.77728 -0.2,0.78775 -1.11902,0.01 -1.4,0.7176 -1.4,3.52665 0,2.38593 -0.38532,3.66228 -1.2,3.9749 -0.78459,0.30107 -1.2,1.54731 -1.2,3.6 0,2.05269 -0.41542,3.29892 -1.2,3.6 -0.68612,0.26329 -1.2,1.45705 -1.2,2.78763 0,1.27994 -0.54,2.77531 -1.2,3.32307 -0.66,0.54775 -1.2,1.67183 -1.2,2.49795 0,0.82613 0.54,1.50205 1.2,1.50205 0.66666,0 1.2,-0.71112 1.2,-1.6 z m 19.2,-2.4 c 0,-0.44 -0.36,-0.8 -0.8,-0.8 -0.44,0 -0.8,0.36 -0.8,0.8 0,0.44 0.36,0.8 0.8,0.8 0.44,0 0.8,-0.36 0.8,-0.8 z m -106.09003,-1.45435 c 0.22242,-0.35989 -0.56633,-1.70277 -1.75278,-2.98419 -1.18646,-1.28142 -2.0672,-2.60697 -1.9572,-2.94566 0.11,-0.33869 -0.34,-0.6158 -1,-0.6158 -0.8,0 -1.2,-0.8 -1.2,-2.4 0,-1.6 -0.4,-2.4 -1.2,-2.4 -0.66666,0 -1.2,-0.71112 -1.2,-1.6 0,-0.88 -0.50097,-1.6 -1.11327,-1.6 -0.6123,0 -1.33916,-0.9 -1.61524,-2 -0.27609,-1.1 -0.85511,-2 -1.28673,-2 -0.43161,0 -0.78476,-0.69429 -0.78476,-1.54286 0,-0.84858 -0.54,-2.08286 -1.2,-2.74286 -0.66,-0.66 -1.2,-2.30572 -1.2,-3.65714 0,-1.65079 -0.3938,-2.45714 -1.2,-2.45714 -0.73584,0 -1.2,-0.74829 -1.2,-1.93457 0,-2.53361 -0.80227,-4.55846 -1.60865,-4.06008 -0.35255,0.21788 -0.89839,-1.49419 -1.21299,-3.8046 -0.3146,-2.31042 -0.87021,-4.39074 -1.23468,-4.62294 -0.36448,-0.2322 -0.91448,-2.9322 -1.22223,-6 -0.30775,-3.0678 -0.87981,-5.78761 -1.27124,-6.04402 -0.39142,-0.25642 -0.93497,-8.45496 -1.20789,-18.21898 -0.431,-15.41956 -0.33443,-17.8817 0.73481,-18.73379 0.75933,-0.60511 1.42259,-2.95642 1.73091,-6.13626 0.27494,-2.83537 0.82156,-5.35537 1.21472,-5.6 0.39316,-0.24462 0.96989,-2.49103 1.28163,-4.99202 0.33873,-2.71752 1.01521,-4.71932 1.68121,-4.97489 0.61292,-0.2352 1.1144,-1.48894 1.1144,-2.78608 0,-1.29714 0.405,-2.49344 0.9,-2.65844 0.495,-0.165 0.9,-1.275 0.9,-2.46667 0,-1.26925 0.4406,-2.16667 1.06376,-2.16667 0.58505,0 1.29544,-1.23506 1.57863,-2.74458 0.28319,-1.50952 1.0195,-2.93823 1.63625,-3.1749 0.61675,-0.23666 1.12136,-1.1616 1.12136,-2.05541 0,-0.89381 0.31802,-1.62511 0.7067,-1.62511 0.38868,0 0.89498,-0.72 1.1251,-1.6 0.23013,-0.88 0.99212,-1.6 1.69331,-1.6 0.82655,0 1.27489,-0.70333 1.27489,-2 0,-1.24445 0.45334,-2 1.2,-2 0.66667,0 1.2,-0.71111 1.2,-1.6 0,-0.88889 0.53334,-1.6 1.2,-1.6 0.66,0 1.2,-0.539998 1.2,-1.199998 0,-0.66 0.36,-1.2 0.8,-1.2 0.44,0 0.76107,-0.27 0.71348,-0.6 -0.21704,-1.50517 1.18159,-4.2 2.17983,-4.2 0.60868,0 1.10669,-0.54 1.10669,-1.2 0,-0.66 -0.54,-1.2 -1.2,-1.2 -0.66,0 -1.2,0.5114 -1.2,1.13643 0,0.62504 -1.12792,1.38418 -2.50651,1.68696 -1.37858,0.3028 -2.12862,0.78408 -1.66675,1.06953 0.46186,0.28545 -0.7502,1.227 -2.69349,2.09234 -1.94329,0.86533 -3.53325,2.03265 -3.53325,2.59404 0,0.561378 -0.85801,1.020698 -1.90669,1.020698 -1.23389,0 -2.05434,0.56459 -2.32511,1.6 -0.23012,0.88 -0.99211,1.6 -1.6933,1.6 -0.70119,0 -1.2749,0.36 -1.2749,0.8 0,0.44 -0.54,0.8 -1.2,0.8 -0.66,0 -1.21524,0.45 -1.23388,1 -0.0186,0.55 -1.09863,1.88311 -2.4,2.96247 -1.30136,1.07936 -2.36612,2.42936 -2.36612,3 0,0.57064 -0.37784,1.03753 -0.83965,1.03753 -1.15146,0 -6.36035,5.14376 -6.36035,6.28082 0,0.50555 -0.50097,0.91918 -1.11327,0.91918 -0.6123,0 -1.33916,0.9 -1.61524,2 -0.27609,1.1 -0.82874,2 -1.22814,2 -0.92465,0 -3.24335,4.60209 -3.24335,6.43732 0,0.76532 -0.48905,1.57917 -1.08679,1.80854 -0.59774,0.22938 -1.3157,1.8486 -1.59549,3.59827 -0.27978,1.74968 -1.05073,3.38923 -1.71321,3.64344 -0.70613,0.27097 -1.20451,1.46563 -1.20451,2.88733 0,1.33381 -0.36,2.4251 -0.8,2.4251 -0.45624,0 -0.8,2.3782 -0.8,5.53457 0,6.26907 -0.6136,8.84489 -1.69908,7.13251 -0.38798,-0.61205 -0.68164,3.58176 -0.68867,9.83497 -0.01,8.72561 0.22731,11.10086 1.18775,11.89795 0.85381,0.7086 1.2,2.58321 1.2,6.49796 0,3.13469 0.34422,5.50204 0.8,5.50204 0.44,0 0.8,1.62 0.8,3.6 0,2.53177 0.32839,3.6 1.1067,3.6 1.15925,0 2.06385,2.34578 2.08238,5.4 0.006,1.06181 0.50305,1.80001 1.21092,1.80001 0.66,0 1.2,0.54 1.2,1.2 0,0.66 0.54,1.2 1.2,1.2 0.8,0 1.2,0.8 1.2,2.4 0,1.32 0.3314,2.4 0.73643,2.4 0.40504,0 0.97365,1.08 1.26357,2.4 0.28992,1.32 1.03853,2.4 1.66357,2.4 0.62503,0 1.13643,0.54 1.13643,1.2 0,0.66 0.54,1.2 1.2,1.2 0.66,0 1.2,0.54 1.2,1.2 0,0.66 0.54,1.2 1.2,1.2 0.66,0 1.2,0.55129 1.2,1.2251 0,0.67382 0.54,1.43233 1.2,1.68559 0.66,0.25327 1.2,0.96197 1.2,1.5749 0,0.61292 0.54,1.11441 1.2,1.11441 0.66,0 1.2,0.54 1.2,1.2 0,0.66 0.45,1.21524 1,1.23388 0.55,0.0186 1.88312,1.09863 2.96248,2.4 1.07936,1.30136 2.42936,2.36612 3,2.36612 0.57064,0 1.03752,0.54 1.03752,1.2 0,1.02676 0.74965,1.33398 2.84079,1.16421 0.24243,-0.0197 1.40259,1.06031 2.57814,2.4 1.17555,1.33968 2.5972,2.43579 3.15922,2.43579 0.56202,0 1.02185,0.54 1.02185,1.2 0,1.25082 2.80469,1.68684 3.50998,0.54565 z m 110.89003,-1.03892 c 0,-0.3887 0.55129,-0.70673 1.2251,-0.70673 0.67382,0 1.41986,-0.50752 1.65789,-1.1278 0.23803,-0.6203 1.32145,-1.35085 2.40761,-1.62346 1.08616,-0.27261 1.76539,-0.83454 1.5094,-1.24874 -0.256,-0.4142 0.44928,-0.98268 1.56728,-1.26328 1.118,-0.2806 2.03272,-0.83115 2.03272,-1.22345 0,-0.3923 0.55129,-0.71327 1.2251,-0.71327 0.67382,0 1.43233,-0.54 1.68559,-1.2 0.25327,-0.66 0.96197,-1.2 1.5749,-1.2 0.61292,0 1.11441,-0.54 1.11441,-1.2 0,-0.66 0.36,-1.2 0.8,-1.2 0.44,0 0.8,-0.72 0.8,-1.6 0,-0.88889 0.53333,-1.6 1.2,-1.6 0.66,0 1.2,-0.36 1.2,-0.8 0,-0.44 0.45,-0.80622 1,-0.81383 1.21959,-0.0169 4.6,-3.46997 4.6,-4.69893 0,-0.48799 0.36,-0.88724 0.8,-0.88724 0.44,0 0.8,-0.57371 0.8,-1.2749 0,-0.70119 0.72,-1.46318 1.6,-1.6933 1.03541,-0.27077 1.6,-1.09122 1.6,-2.32511 0,-1.1615 0.46899,-1.90669 1.2,-1.90669 0.66,0 1.2,-0.64824 1.2,-1.44052 0,-2.3066 1.87836,-5.64567 3.39973,-6.04352 1.0014,-0.26187 1.40027,-1.17378 1.40027,-3.20132 0,-1.55933 0.48715,-3.12303 1.08255,-3.47489 0.59541,-0.35187 1.29218,-2.25201 1.5484,-4.22256 0.25621,-1.97053 0.84906,-3.71053 1.31744,-3.86666 0.49362,-0.16454 0.85161,-2.62971 0.85161,-5.86442 0,-3.51664 0.29587,-5.39768 0.8,-5.08612 0.92921,0.57429 0.86754,1.12825 1.22929,-11.04238 0.2282,-7.67729 0.0647,-9.52523 -0.87432,-9.88559 -0.81024,-0.31092 -1.15497,-1.73863 -1.15497,-4.78331 0,-2.38706 -0.54,-5.63251 -1.2,-7.21211 -0.66,-1.57961 -1.2,-4.08804 -1.2,-5.5743 0,-1.86871 -0.37017,-2.70231 -1.2,-2.70231 -0.73584,0 -1.2,-0.74828 -1.2,-1.93456 0,-2.76168 -0.79575,-4.46544 -2.08559,-4.46544 -0.66223,0 -1.11441,-0.83068 -1.11441,-2.04721 0,-1.17694 -0.34408,-1.83456 -0.80939,-1.54698 -0.44979,0.27798 -1.02738,-0.58965 -1.3,-1.95278 -0.26984,-1.34917 -0.80561,-2.45303 -1.19061,-2.45303 -0.385,0 -0.7,-0.9337 -0.7,-2.07489 0,-1.4021 -0.51882,-2.21057 -1.6,-2.49331 -0.88,-0.23013 -1.6,-0.91642 -1.6,-1.5251 0,-0.60868 -0.54,-1.1067 -1.2,-1.1067 -0.66,0 -1.2,-0.54 -1.2,-1.2 0,-0.66 -0.36,-1.2 -0.8,-1.2 -0.44,0 -0.8,-0.54 -0.8,-1.2 0,-0.66666 -0.71112,-1.2 -1.6,-1.2 -0.88889,0 -1.6,-0.53333 -1.6,-1.2 0,-0.66 -0.54,-1.2 -1.2,-1.2 -0.66,0 -1.2,-0.54 -1.2,-1.2 0,-0.66 -0.54,-1.2 -1.2,-1.2 -0.66,0 -1.2,-0.54 -1.2,-1.2 0,-0.66 -0.54,-1.2 -1.2,-1.2 -0.66,0 -1.2,-0.54 -1.2,-1.2 0,-0.66 -0.50149,-1.2 -1.11441,-1.2 -0.61293,0 -1.32163,-0.54 -1.5749,-1.2 -0.25326,-0.66 -1.37177,-1.2 -2.48559,-1.2 -1.26676,0 -2.0251,-0.44937 -2.0251,-1.199998 0,-0.66 -0.54,-1.2 -1.2,-1.2 -0.66,0 -1.2,-0.54 -1.2,-1.2 0,-0.80276 -0.8028,-1.2 -2.42511,-1.2 -1.41766,0 -2.61641,-0.49851 -2.88559,-1.2 -0.50594,-1.31845 -4.2893,-1.67933 -4.2893,-0.40914 0,1.21729 2.63073,4.00914 3.77779,4.00914 0.56221,0 1.02221,0.37719 1.02221,0.8382 0,0.46101 0.87512,1.649238 1.94472,2.640508 1.0696,0.99128 2.1821,2.74804 2.4722,3.90392 0.29011,1.15588 1.03498,2.29635 1.65528,2.53438 0.62028,0.23802 1.1278,0.98407 1.1278,1.65789 0,0.67381 0.54,1.2251 1.2,1.2251 0.74666,0 1.2,0.75555 1.2,2 0,1.24445 0.45333,2 1.2,2 0.79013,0 1.2,0.79049 1.2,2.31441 0,1.31926 0.51597,2.51241 1.2,2.7749 0.68812,0.26405 1.2,1.45841 1.2,2.8 0,1.34157 0.51187,2.53593 1.2,2.8 0.66,0.25326 1.2,1.37177 1.2,2.48559 0,1.11381 0.45,2.03062 1,2.03735 0.66666,0.008 0.6,0.27075 -0.2,0.78775 -1.02552,0.66275 -0.99644,0.77728 0.2,0.78776 1.14503,0.01 1.4,0.74072 1.4,4.01224 0,3.02223 0.29333,4 1.2,4 0.96666,0 1.2,1.24445 1.2,6.4 0,5.15556 0.23333,6.4 1.2,6.4 0.96771,0 1.23348,1.43244 1.37298,7.4 0.29612,12.66771 -0.33849,28.17612 -1.17478,28.70922 -0.43936,0.28006 -0.98208,3.07006 -1.20602,6.2 -0.29174,4.07751 -0.71689,5.69078 -1.49968,5.69078 -0.77767,0 -1.0925,1.1527 -1.0925,4 0,2.20001 -0.36,4.00001 -0.8,4.00001 -0.44,0 -0.72712,0.27 -0.63803,0.6 0.46367,1.71751 -1.16252,6.6 -2.19822,6.6 -0.75973,0 -1.16375,0.83322 -1.16375,2.4 0,1.6 -0.4,2.4 -1.2,2.4 -0.8381,0 -1.2,0.84444 -1.2,2.8 0,1.95555 -0.36191,2.8 -1.2,2.8 -0.67285,0 -1.2,0.7139 -1.2,1.6251 0,0.89382 -0.54,1.83233 -1.2,2.08559 -0.66,0.25327 -1.2,0.97327 -1.2,1.6 0,0.62674 -0.50752,1.33427 -1.1278,1.5723 -0.6203,0.23803 -1.34716,1.30673 -1.61524,2.37489 -0.2681,1.06816 -0.84059,1.94212 -1.2722,1.94212 -0.43162,0 -0.78476,0.72 -0.78476,1.6 0,0.88888 -0.53334,1.6 -1.2,1.6 -0.66,0 -1.2,0.54 -1.2,1.2 0,0.66 -0.54,1.2 -1.2,1.2 -0.66,0 -1.2,0.49008 -1.2,1.08906 0,0.73029 0.65887,0.96311 2,0.70674 1.1,-0.21028 2,-0.70036 2,-1.08907 z M 264.79982,91.580212 c -0.25537,-0.63818 -0.44494,-0.44862 -0.48332,0.48334 -0.0347,0.84333 0.15434,1.31583 0.42017,1.05 0.26583,-0.26584 0.29425,-0.95584 0.0631,-1.53334 z M 90.389773,253.7973 c -0.267424,-0.6969 -1.21752,-1.26708 -2.111336,-1.26708 -0.893808,0 -1.625104,-0.35315 -1.625104,-0.78476 0,-0.43162 -0.9,-1.01064 -2,-1.28673 -1.1,-0.27608 -2,-1.00294 -2,-1.61524 0,-0.6123 -0.54,-1.11327 -1.2,-1.11327 -0.66,0 -1.2,-0.56572 -1.2,-1.25715 0,-0.69142 -0.54,-1.79714 -1.2,-2.45714 -0.66,-0.66 -1.2,-2.25428 -1.2,-3.54286 0,-1.48439 -0.413936,-2.34285 -1.129682,-2.34285 -0.692517,0 -1.336692,-1.22528 -1.664618,-3.16627 -0.584278,-3.45831 -0.0011,-6.1526 1.699845,-7.85357 0.60195,-0.60195 1.094455,-2.11022 1.094455,-3.35172 0,-1.26846 0.525662,-2.45898 1.2,-2.71775 0.66,-0.25326 1.2,-1.01177 1.2,-1.68559 0,-0.67381 0.54,-1.2251 1.2,-1.2251 0.66,0 1.2,-0.49802 1.2,-1.1067 0,-0.60868 0.81,-1.36538 1.8,-1.68156 0.99,-0.31618 2.52,-0.80139 3.4,-1.07826 2.82144,-0.88768 15.618747,-0.59908 16.230147,0.36601 0.31342,0.49472 1.743,1.15402 3.17684,1.4651 1.43384,0.31108 2.40101,0.89885 2.14928,1.30615 -0.25172,0.4073 0.10514,0.95653 0.79303,1.2205 0.68789,0.26396 1.2507,0.98142 1.2507,1.59435 0,0.61292 0.63,1.11992 1.4,1.12665 1.19644,0.0105 1.22552,0.12501 0.2,0.78776 -1.02552,0.66274 -0.99644,0.77728 0.2,0.78775 0.86259,0.007 1.4,0.62644 1.4,1.61225 0,0.88 0.49697,1.6 1.10437,1.6 0.86052,0 1.134,1.85475 1.23855,8.4 0.11046,6.91476 -0.0736,8.4 -1.04081,8.4 -0.65506,0 -1.40823,1.06197 -1.70211,2.4 -0.28992,1.32 -1.03853,2.4 -1.66357,2.4 -0.62503,0 -1.13643,0.35588 -1.13643,0.79085 0,1.70434 -2.86167,4.00915 -4.97779,4.00915 -1.44196,0 -2.22221,0.42133 -2.22221,1.2 0,0.96 -1.2,1.2 -5.999997,1.2 -4.260136,0 -6.003552,-0.28998 -6.012248,-1 -0.0092,-0.74876 -0.1822,-0.7319 -0.688672,0.067 -0.544616,0.85914 -0.77116,0.82017 -1.16264,-0.2 z m 8.549272,-4.86708 c 0.66,-0.66 2.125725,-1.2 3.257145,-1.2 1.29524,0 2.05714,-0.44445 2.05714,-1.2 0,-0.66667 0.71111,-1.2 1.6,-1.2 0.88889,0 1.6,-0.53334 1.6,-1.2 0,-0.66 0.54,-1.2 1.2,-1.2 0.66,0 1.2,-0.51 1.2,-1.13334 0,-0.62333 0.38323,-1.26107 0.85161,-1.4172 0.46838,-0.15613 1.05578,-1.80613 1.30534,-3.66666 0.24955,-1.86055 0.76632,-3.3828 1.14839,-3.3828 0.38206,0 0.69466,-0.74125 0.69466,-1.64722 0,-0.90597 -0.31399,-1.45315 -0.69776,-1.21598 -0.38377,0.23719 -0.87719,-1.16071 -1.0965,-3.10643 -0.43237,-3.83597 -1.60947,-5.4794 -4.60574,-6.43037 -1.05896,-0.3361 -2.41788,-1.1036 -3.01983,-1.70555 -1.55457,-1.55457 -11.271615,-1.50819 -11.872103,0.0566 -0.242952,0.63311 -1.491656,1.38172 -2.774896,1.66357 -1.28324,0.28185 -2.333168,0.80186 -2.333168,1.15558 0,0.35372 -0.72,0.83141 -1.6,1.06154 -0.88,0.23013 -1.6,0.99211 -1.6,1.6933 0,0.7012 -0.36,1.2749 -0.8,1.2749 -0.44,0 -0.8,0.9 -0.8,2 0,1.24445 -0.453334,2 -1.2,2 -0.960445,0 -1.2,1.20279 -1.2,6.0251 0,4.61767 0.280317,6.13268 1.2,6.4856 0.66,0.25327 1.2,0.77785 1.2,1.16575 0,1.77389 3.004928,3.91623 6.155832,4.38873 1.894288,0.28407 3.444168,0.83561 3.444168,1.22565 0,1.18722 5.40444,0.79045 6.685712,-0.49083 z m 249.014065,-1.15633 c -0.40456,-2.52999 -0.86864,-3.24367 -2.10923,-3.24367 -0.8748,0 -1.59054,-0.36 -1.59054,-0.8 0,-0.44 -0.9,-0.8 -2,-0.8 -1.17321,0 -2,-0.45928 -2,-1.11097 0,-0.63629 -1.19635,-1.3354 -2.8,-1.63625 -1.67607,-0.31443 -2.8,-0.99242 -2.8,-1.68903 0,-0.74213 -0.81412,-1.16375 -2.2471,-1.16375 -1.2359,0 -2.9459,-0.52856 -3.8,-1.17456 -0.85409,-0.646 -2.3629,-1.186 -3.3529,-1.2 -0.99,-0.014 -1.8,-0.38544 -1.8,-0.82544 0,-1.31266 -5.37211,-0.94779 -5.88931,0.4 -0.84343,2.19796 -2.11069,1.23732 -2.11069,-1.6 0,-1.54 0.3314,-2.8 0.73643,-2.8 0.40504,0 0.97365,-1.08 1.26357,-2.4 0.46039,-2.09617 0.87355,-2.4 3.26357,-2.4 1.50503,0 2.73643,-0.31349 2.73643,-0.69664 0,-0.38314 2.49169,-0.94216 5.5371,-1.24224 3.2683,-0.32205 5.93081,-1.02 6.49795,-1.70336 0.65562,-0.78997 2.58965,-1.15776 6.08801,-1.15776 3.62503,0 5.25146,-0.32393 5.55143,-1.10565 0.23336,-0.60811 1.84205,-1.33237 3.57489,-1.60946 2.84563,-0.45503 4.57653,-1.96007 2.15062,-1.86997 -3.60947,0.13404 -5.4,-0.33512 -5.4,-1.41492 0,-0.66 -0.69429,-1.2 -1.54286,-1.2 -0.84857,0 -2.06509,-0.52223 -2.70336,-1.16051 -0.63828,-0.63828 -2.10399,-1.3973 -3.25714,-1.68673 -1.15315,-0.28942 -2.09664,-0.84719 -2.09664,-1.23949 0,-0.3923 -2.34,-0.71327 -5.2,-0.71327 -2.93334,0 -5.2,0.34872 -5.2,0.8 0,0.44 -0.54,0.8 -1.2,0.8 -0.66667,0 -1.2,-0.71112 -1.2,-1.6 0,-0.88889 0.53333,-1.6 1.2,-1.6 0.7416,0 1.2,-0.7521 1.2,-1.96884 0,-1.08286 0.70933,-2.62967 1.57628,-3.43737 1.29571,-1.20713 1.60577,-2.66756 1.74202,-8.20507 0.0912,-3.7051 0.31184,-6.29829 0.49039,-5.76264 0.78031,2.34091 1.57012,0.63445 1.49316,-3.22609 -0.0461,-2.31 0.002,-8.25 0.1072,-13.2 l 0.19095,-9 h 4.4 c 3.51886,0 4.4,0.259 4.4,1.29331 0,0.93481 -0.48315,1.16696 -1.74302,0.83749 -1.22109,-0.31932 -2.29906,0.14419 -3.6,1.54792 -1.56904,1.69302 -1.85698,2.8583 -1.85698,7.51496 v 5.51124 l 15.8,0.24754 c 8.69,0.13615 16.43,0.11556 17.2,-0.0458 0.94182,-0.19732 1.4,-1.04822 1.4,-2.6 0,-1.53968 0.40802,-2.3067 1.22706,-2.3067 1.04027,0 1.1925,1.2993 1,8.53492 -0.15825,5.94863 -0.53009,8.63544 -1.22706,8.86667 -0.58616,0.19445 -1,-0.35799 -1,-1.33492 0,-0.91667 -0.36,-1.66667 -0.8,-1.66667 -0.44,0 -0.8,-0.54 -0.8,-1.2 0,-0.96637 -1.28493,-1.208 -6.6,-1.24108 -3.63,-0.0226 -9.12,-0.38564 -12.2,-0.80676 -3.08,-0.42113 -7.49,-0.98723 -9.8,-1.25799 l -4.2,-0.49229 v 6.43363 c 0,7.99623 0.35488,8.96449 3.28559,8.96449 1.27292,0 2.31441,0.36 2.31441,0.8 0,0.44 -1.62,0.8 -3.6,0.8 -3.06667,0 -3.6,0.23704 -3.6,1.6 0,0.88 0.36,1.6 0.8,1.6 0.44,0 0.8,0.54 0.8,1.20001 0,0.8 0.8,1.2 2.4,1.2 1.32,0 2.4,0.36 2.4,0.8 0,0.44 1.08,0.8 2.4,0.8 1.51452,0 2.4,0.40989 2.4,1.11096 0,0.63629 1.19634,1.3354 2.8,1.63625 1.67606,0.31443 2.8,0.99243 2.8,1.68903 0,0.75973 0.83322,1.16376 2.4,1.16376 1.6,0 2.4,0.4 2.4,1.2 0,0.83809 0.84445,1.2 2.8,1.2 1.54,0 2.8,0.35314 2.8,0.78476 0,0.43161 0.91967,1.01557 2.04371,1.29769 1.63651,0.41074 1.99515,0.93181 1.8,2.61524 -0.21849,1.88469 -0.61636,2.12415 -3.84371,2.31328 -5.02123,0.29427 -7.34583,0.90585 -6.8,1.78903 0.568,0.91904 -3.14065,1.94744 -4.76923,1.3225 -0.64504,-0.24752 -3.18341,0.0737 -5.64082,0.71373 -2.45741,0.64007 -5.84637,1.16377 -7.53103,1.16377 -1.74671,0 -3.49099,0.51568 -4.05892,1.2 -0.54775,0.66 -1.69823,1.2 -2.55662,1.2 -2.49083,0 -1.44197,2.75241 1.16346,3.05313 1.20624,0.13923 2.19316,0.58923 2.19316,1 0,0.41078 1.08,0.74687 2.4,0.74687 1.51452,0 2.4,0.40989 2.4,1.11096 0,0.63629 1.19634,1.3354 2.8,1.63625 1.67606,0.31443 2.8,0.99243 2.8,1.68903 0,0.75973 0.83322,1.16376 2.4,1.16376 1.32,0 2.4,0.3487 2.4,0.77489 0,0.42619 0.45,0.63626 1,0.46682 4.57879,-1.41061 5.4,-1.29761 5.4,0.74305 0,1.10838 -0.36,2.01524 -0.8,2.01524 -0.44,0 -0.8,1.26 -0.8,2.8 0,1.54 -0.33056,2.8 -0.73457,2.8 -0.40402,0 -1.25486,0.19965 -1.89077,0.44367 -0.84837,0.32555 -1.2943,-0.41994 -1.67489,-2.8 z m -1.09977,-63.7735 c -0.55,-0.22193 -1.45,-0.22193 -2,0 -0.55,0.22193 -0.1,0.40351 1,0.40351 1.1,0 1.55,-0.18158 1,-0.40351 z M 65.853332,212.19688 c 0,-0.62333 0.45,-1.34333 1.000001,-1.6 0.8,-0.37333 0.8,-0.56 0,-0.93333 -0.550001,-0.25667 -1.000001,-1.69667 -1.000001,-3.2 0,-1.89629 -0.36748,-2.73334 -1.2,-2.73334 -0.834175,0 -1.2,-0.8392 -1.2,-2.75278 0,-2.8234 -1.144531,-4.44797 -1.868513,-2.6522 -0.222844,0.55274 -0.433592,-1.27947 -0.468329,-4.07158 -0.0587,-4.71878 1.334195,-9.08915 3.376918,-10.59542 0.352042,-0.25958 0.698503,-1.24762 0.769914,-2.19562 0.096,-1.27449 0.815203,-1.85222 2.759924,-2.21705 1.473978,-0.27652 2.630087,-0.98176 2.630087,-1.60438 0,-0.63845 0.814232,-1.11097 1.914408,-1.11097 1.052925,0 2.121627,-0.54 2.374892,-1.2 0.625382,-1.62972 11.088404,-1.71376 12.427844,-0.0998 0.502184,0.6051 2.346264,1.32935 4.09796,1.60946 1.751696,0.2801 3.184896,0.86503 3.184896,1.29983 0,0.4348 0.498016,0.79054 1.106696,0.79054 0.60868,0 1.294976,0.72 1.525104,1.6 0.230128,0.88 0.992112,1.6 1.693304,1.6 0.954048,0 1.274893,0.80534 1.274893,3.2 0,1.76 0.36,3.2 0.8,3.2 0.46667,0 0.8,2.66667 0.8,6.4 0,3.73334 -0.33333,6.4 -0.8,6.4 -0.44,0 -0.8,0.54 -0.8,1.2 0,0.66 0.36,1.2 0.8,1.2 0.44,0 0.8,0.54 0.8,1.20001 0,0.91832 -1.01271,1.2 -4.314405,1.2 -3.09704,0 -4.444344,-0.3386 -4.774896,-1.2 -0.313216,-0.81624 0.0432,-1.20001 1.114408,-1.20001 0.866576,0 1.574896,-0.53971 1.574896,-1.2 0,-0.66 0.54,-1.2 1.2,-1.2 0.666664,0 1.2,-0.71111 1.2,-1.6 0,-0.88 0.45,-1.60551 1,-1.61224 0.666664,-0.008 0.6,-0.27076 -0.2,-0.78776 -0.8,-0.517 -0.866664,-0.77958 -0.2,-0.78775 0.65004,-0.008 1,-1.27211 1,-3.61225 0,-1.98 -0.36,-3.6 -0.8,-3.6 -0.44,0 -0.8,-0.45999 -0.8,-1.0222 0,-1.31984 -2.868736,-3.7778 -4.409144,-3.7778 -0.654968,0 -1.190856,-0.53314 -1.190856,-1.18476 0,-0.65161 -0.926384,-1.41726 -2.058632,-1.70144 -2.85456,-0.71644 -13.990587,0.0817 -14.623142,1.04812 -0.285025,0.43545 -1.579995,1.05203 -2.877713,1.37018 -1.297717,0.31814 -3.170527,1.45358 -4.161801,2.52318 -0.991272,1.0696 -2.232792,1.94472 -2.75893,1.94472 -1.224778,0 -0.407636,14.63739 0.840365,15.05339 0.461919,0.15397 0.839853,0.78995 0.839853,1.41328 0,0.62334 0.72,1.13334 1.6,1.13334 0.888888,0 1.6,0.53333 1.6,1.2 0,0.86666 0.888888,1.2 3.2,1.2 2.211494,0 3.2,0.34642 3.2,1.12144 0,0.7754 -1.480788,1.29332 -4.798757,1.67841 -2.639316,0.30633 -4.59807,0.88167 -4.352787,1.27855 0.245284,0.39688 -0.115276,0.7216 -0.801243,0.7216 -0.685967,0 -1.247214,-0.51 -1.247214,-1.13334 z M 146.18185,80.930212 c -0.27608,-1.1 -1.00294,-2 -1.61524,-2 -0.68597,0 -1.11328,-0.85978 -1.11328,-2.24 0,-1.232 -0.426,-2.666 -0.94666,-3.18666 -0.52067,-0.52067 -0.75219,-1.14114 -0.5145,-1.37884 0.85188,-0.85188 3.19728,0.65934 3.90264,2.51461 0.67819,1.78376 1.10532,1.89089 7.53872,1.89089 5.27317,0 6.8198,-0.25098 6.8198,-1.10669 0,-0.60868 0.73883,-1.2999 1.64184,-1.53605 1.45652,-0.38088 1.61453,-0.95576 1.4,-5.0933 -0.22939,-4.42392 -0.35506,-4.67699 -2.44184,-4.9171 -1.21,-0.13922 -2.20551,-0.67922 -2.21224,-1.199996 -0.008,-0.625091 -0.24602,-0.577939 -0.70013,0.138747 -0.74391,1.174049 -4.08763,0.569109 -4.08763,-0.73952 0,-0.410349 -2.66148,-0.74609 -5.9144,-0.74609 -4.51927,0 -6.02304,-0.283068 -6.3749,-1.2 -0.25326,-0.66 -1.01178,-1.2 -1.68559,-1.2 -0.67381,0 -1.22511,-0.54 -1.22511,-1.2 0,-0.66 -0.54,-1.2 -1.2,-1.2 -0.96,0 -1.2,-1.2 -1.2,-6 0,-4.59519 0.26092,-6 1.11441,-6 0.61293,0 1.32163,-0.54 1.5749,-1.2 0.25326,-0.66 1.01177,-1.2 1.68559,-1.2 0.67381,0 1.2251,-0.54 1.2251,-1.2 0,-0.950445 1.1452,-1.2 5.5067,-1.2 4.92181,0 5.55337,-0.17849 5.94615,-1.680493 0.57458,-2.197166 1.88647,-1.327605 2.54917,1.689667 0.28881,1.314954 1.03651,2.390826 1.66155,2.390826 0.72937,0 1.13643,0.859662 1.13643,2.4 0,1.6 -0.4,2.4 -1.2,2.4 -0.66,0 -1.2,-0.54 -1.2,-1.2 0,-0.666666 -0.71111,-1.2 -1.6,-1.2 -0.88888,0 -1.6,-0.533334 -1.6,-1.2 0,-0.921212 -1.02222,-1.2 -4.4,-1.2 -5.49672,0 -7.6,1.73687 -7.6,6.27601 0,4.009038 1.89356,5.72399 6.32014,5.72399 1.95035,0 3.9046,0.510453 4.59415,1.2 0.85396,0.853963 2.93531,1.2 7.21775,1.2 5.34496,0 6.06453,0.178885 6.43616,1.6 0.23013,0.88 0.91643,1.6 1.52511,1.6 0.64001,0 1.10669,0.823483 1.10669,1.952787 0,1.074033 0.36,2.175282 0.8,2.447212 0.44,0.27194 0.8,1.35194 0.8,2.4 0,1.04807 -0.36,2.12807 -0.8,2.4 -0.44,0.27194 -0.8,1.55318 -0.8,2.84721 0,1.55804 -0.40535,2.35279 -1.2,2.35279 -0.66,0 -1.2,0.54 -1.2,1.2 0,0.66 -0.50148,1.2 -1.1144,1.2 -0.61293,0 -1.29014,0.45794 -1.50492,1.01765 -0.21478,0.5597 -1.42329,1.1028 -2.68559,1.20689 -1.2623,0.10409 -2.41509,0.54615 -2.56175,0.98236 -0.14667,0.4362 -2.22797,0.7931 -4.62511,0.7931 -3.13618,0 -4.48758,0.33652 -4.81892,1.2 -0.69626,1.8144 -1.79835,1.44093 -2.36079,-0.8 z m 126.10797,-0.18433 c -0.63993,-0.2519 -1.87781,-1.12348 -2.75084,-1.93684 -0.87304,-0.81336 -1.8726,-1.47883 -2.22125,-1.47883 -0.34865,0 -0.85979,-0.9 -1.13588,-2 -0.39066,-1.55649 -1.01494,-2 -2.81524,-2 -2.03697,0 -2.31327,-0.28666 -2.31327,-2.4 0,-1.6 0.4,-2.4 1.2,-2.4 0.70787,0 1.20448,-0.73819 1.21092,-1.8 0.0152,-2.50556 0.85827,-5.399999 1.57285,-5.399999 0.32844,0 0.79587,2.249999 1.03873,4.999999 0.51595,5.84232 1.93506,9.14999 4.17723,9.73633 0.88015,0.23017 1.67477,0.33865 1.76583,0.24108 0.0911,-0.0976 0.66343,0.50347 1.27193,1.33565 0.89416,1.22284 1.67616,1.40616 4.07695,0.95577 4.60845,-0.86455 6.08556,-2.58147 6.08556,-7.07358 0,-3.22218 -0.39094,-4.23133 -2.4,-6.19525 -1.32,-1.29034 -2.4,-2.679691 -2.4,-3.087445 0,-0.407754 -0.54,-0.948589 -1.2,-1.201854 -0.66,-0.253267 -1.2,-1.371783 -1.2,-2.485592 0,-1.19088 -0.4559,-2.025108 -1.1067,-2.025108 -0.60868,0 -1.2639,-0.63 -1.45604,-1.4 -0.59962,-2.402937 0.28513,-8.2 1.25147,-8.2 0.50638,0 1.38214,-1.04248 1.94612,-2.316623 0.74419,-1.681227 1.76918,-2.456149 3.73707,-2.825327 1.4914,-0.279788 2.91783,-0.947308 3.16985,-1.483377 0.3594,-0.764466 0.55747,-0.763226 0.91837,0.0058 0.25307,0.539233 2.23307,1.215612 4.4,1.503064 2.55013,0.338278 3.93986,0.90956 3.93986,1.619568 0,0.603314 0.54,1.096935 1.2,1.096935 0.66,0 1.2,0.54 1.2,1.2 0,0.8 0.8,1.2 2.4,1.2 2.15169,0 2.4,0.257157 2.4,2.485591 0,1.88074 -0.29201,2.373536 -1.2,2.025108 -0.92453,-0.354776 -1.2,0.176512 -1.2,2.314409 0,2.396302 -0.26216,2.774892 -1.92145,2.774892 -1.75321,0 -1.97023,-0.420292 -2.47855,-4.8 -0.38521,-3.318966 -0.90312,-4.8 -1.67856,-4.8 -0.61679,0 -1.12144,-0.54 -1.12144,-1.2 0,-0.930814 -1.05678,-1.2 -4.71097,-1.2 h -4.71097 l -0.5163,2.752099 c -0.55574,2.962377 0.10324,6.847901 1.1614,6.847901 0.35734,0 0.88692,1.08 1.17684,2.4 0.28992,1.32 1.03852,2.4 1.66356,2.4 0.62504,0 1.13644,0.54 1.13644,1.2 0,0.66 0.54,1.2 1.2,1.2 0.8,0 1.2,0.8 1.2,2.399999 0,2.41697 1.12116,3.25626 1.87017,1.4 0.22193,-0.55 0.43193,1.76429 0.46667,5.14286 0.0458,4.46007 -0.26557,6.47159 -1.13684,7.34286 -0.66,0.66 -1.2,1.54372 -1.2,1.96383 0,0.42012 -0.81,0.98091 -1.8,1.24622 -2.23657,0.59938 -12.58609,0.54085 -14.16352,-0.0801 z m -40.32579,-13.41567 c -0.26918,-0.70149 -1.46793,-1.2 -2.88559,-1.2 -2.10926,0 -2.4267,-0.28652 -2.43735,-2.2 -0.008,-1.52376 -0.22187,-1.869251 -0.6942,-1.123982 -0.49868,0.786852 -0.83272,0.475252 -1.24302,-1.159485 -0.30859,-1.229528 -1.42165,-3.033052 -2.47345,-4.007833 -1.0518,-0.974781 -2.14596,-2.703012 -2.43145,-3.840514 -0.2855,-1.137502 -1.02006,-2.068185 -1.63236,-2.068185 -0.6123,0 -1.11327,-0.36 -1.11327,-0.8 0,-1.529205 -3.21204,-4 -5.20001,-4 -1.98518,0 -2,0.05334 -2,7.2 0,5.866667 0.22223,7.2 1.2,7.2 0.66,0 1.2,0.516088 1.2,1.146863 0,0.656426 0.9408,1.255116 2.2,1.399996 1.21001,0.13923 2.20001,0.74598 2.20001,1.34834 0,0.78781 -1.23493,1.10993 -4.40001,1.14769 -9.44809,0.11273 -12,-0.19412 -12,-1.44289 0,-0.66 -0.54,-1.2 -1.2,-1.2 -0.66,0 -1.2,-0.54 -1.2,-1.199999 0,-0.8 0.8,-1.2 2.4,-1.2 2.06954,0 2.4087,-0.302924 2.46316,-2.2 0.0347,-1.21 0.24474,-1.75 0.46667,-1.2 1.19969,2.97315 1.56039,-0.528673 1.51758,-14.733367 -0.0357,-11.841138 -0.29479,-15.815821 -1.04741,-16.066667 -0.55,-0.183315 -0.95824,-1.2933 -0.9072,-2.466633 0.051,-1.173333 0.23943,-1.593334 0.41864,-0.933333 0.27215,1.002318 1.97134,1.159503 10.31472,0.954168 8.4555,-0.208095 10.06228,-0.05458 10.46696,1 0.26764,0.697462 1.41853,1.245832 2.61469,1.245832 2.70138,0 4.8922,2.511874 4.8922,5.609145 0,1.32622 0.42748,2.390855 0.96,2.390855 0.74666,0 0.74666,0.213333 0,0.96 -0.528,0.528 -0.96,1.968 -0.96,3.2 0,1.232 -0.36,2.24 -0.8,2.24 -0.44,0 -0.8,0.72 -0.8,1.6 0,1.279778 -0.53334,1.6 -2.66482,1.6 -2.06867,0 -2.91877,0.476702 -3.8,2.130909 -0.8865,1.664103 -0.91612,2.204462 -0.13518,2.466667 0.55,0.184667 1,0.845758 1,1.469091 0,0.623333 0.54,1.133333 1.2,1.133333 0.71199,0 1.2,0.733831 1.2,1.804483 0,1.084244 1.11758,2.736315 2.8,4.139093 1.72842,1.441145 2.8,3.046788 2.8,4.195518 0,1.534345 0.42116,1.860905 2.4,1.860905 2.42664,0 2.92071,0.91219 1.9144,3.53457 -0.61663,1.60693 -3.99376,1.65492 -4.60371,0.0654 z M 217.05334,42.930213 c 0,-0.44 1.17,-0.805513 2.6,-0.81225 3.23086,-0.01522 4.21693,-0.643891 5,-3.18775 0.3386,-1.1 1.01712,-2.264487 1.50782,-2.58775 0.64531,-0.425117 0.63493,-0.59114 -0.0375,-0.6 -0.51131,-0.0067 -1.17295,-1.45225 -1.4703,-3.21225 -0.33239,-1.967344 -0.9758,-3.2 -1.67032,-3.2 -0.62132,0 -1.12968,-0.480924 -1.12968,-1.06872 0,-0.753635 -1.41516,-1.119788 -4.8,-1.241935 l -4.80003,-0.173215 v 8.441935 8.441935 h 2.4 c 1.32001,0 2.40001,-0.36 2.40001,-0.8 z m 32.6,273.095777 c 3.43836,-0.92144 1.77161,-1.89563 -3.2,-1.87033 -4.57066,0.0233 -4.86666,0.1263 -3.4471,1.2 1.65037,1.24828 3.71395,1.45638 6.6471,0.67033 z m 9.6878,-2.47257 c 5.49976,-0.49871 6.33836,-1.37759 2.07723,-2.17698 -4.28729,-0.8043 -8.38393,1.00872 -8.35279,3.69663 0.0101,0.86964 0.13208,0.86813 0.68782,-0.009 0.38236,-0.60316 2.80752,-1.259 5.58774,-1.51111 z"
       id="path2340" />
  </g>
</svg>
